<?xml version="1.0" encoding="UTF-8" standalone="no"?>
<svg
   width="47.850468"
   height="47.850468"
   viewBox="0 0 256 255.81596"
   fill="none"
   version="1.1"
   id="svg28"
   sodipodi:docname="es.svg"
   xml:space="preserve"
   inkscape:export-filename="es.png"
   inkscape:export-xdpi="96"
   inkscape:export-ydpi="96"
   xmlns:inkscape="http://www.inkscape.org/namespaces/inkscape"
   xmlns:sodipodi="http://sodipodi.sourceforge.net/DTD/sodipodi-0.dtd"
   xmlns="http://www.w3.org/2000/svg"
   xmlns:svg="http://www.w3.org/2000/svg"><defs
     id="defs28" /><sodipodi:namedview
     id="namedview28"
     pagecolor="#ffffff"
     bordercolor="#000000"
     borderopacity="0.25"
     inkscape:showpageshadow="2"
     inkscape:pageopacity="0.0"
     inkscape:pagecheckerboard="0"
     inkscape:deskcolor="#d1d1d1"><inkscape:page
       x="0"
       y="0"
       width="256"
       height="255.81596"
       id="page2"
       margin="0"
       bleed="0" /></sodipodi:namedview><g
     id="g3"
     transform="translate(-0.6894576,-0.49590021)"><svg
       width="256"
       height="256"
       fill="none"
       viewBox="0 0 256 256"
       id="aws"
       version="1.1"><style
         id="style1">
#aws {
    rect {fill: #242938}
    path.letters {fill: #fff}

    @media (prefers-color-scheme: light) {
        rect {fill: #F4F2ED}
        path.letters {fill: #252F3E}
    }
}
</style><g
         transform="matrix(0.71333333,0,0,-0.71333333,0,14266.823)"
         fill="#000000"
         stroke="none"
         id="g1" /><g
         id="g29"><rect
           width="256"
           height="256"
           fill="#242938"
           rx="60"
           id="rect1"
           x="0.6894576"
           y="0.40388021" /><g
           id="g28"
           transform="matrix(0.06878731,0,0,0.06878731,-314.19596,-46.853373)"><path
             d="m 7379.7445,2711.6304 c 0.8851,-0.01 1.7701,-0.012 2.6821,-0.018 37.0415,-0.1862 37.0415,-0.1862 53.8489,2.6295 0.9961,0.1622 1.992,0.3238 3.0183,0.4912 49.3508,8.2382 95.6773,29.1819 132.4401,63.38 2.1368,1.9734 4.3104,3.8924 6.499,5.8074 39.5378,35.6344 63.0978,88.472 71.9215,140.1225 0.1847,1.0664 0.1847,1.0664 0.3731,2.154 2.2763,14.1209 2.9974,28.2646 2.9401,42.5487 0,0.7972 0,1.5945 -0.01,2.4165 -0.1023,29.13 -4.6302,57.1943 -14.1138,84.7963 -0.3813,1.1137 -0.3813,1.1137 -0.7702,2.2495 -9.6163,27.5975 -24.3311,54.4703 -43.7778,76.3933 -1.1729,1.3388 -2.3162,2.6983 -3.455,4.0657 -7.7839,9.3179 -16.0672,18.1301 -25.6454,25.6298 -1.8214,1.4595 -3.5613,2.9601 -5.3042,4.5109 -39.6997,34.907 -91.2555,50.4913 -142.5907,57.2125 -1.5752,0.2243 -3.1482,0.4788 -4.7035,0.8148 -2.0383,0.3768 -3.8807,0.4931 -5.9501,0.4951 -0.7377,0 -1.4754,0.01 -2.2352,0.01 -0.7869,0 -1.5735,0 -2.3843,-0.01 -1.2259,0 -1.2259,0 -2.4764,0 -1.7247,6e-4 -3.4495,0 -5.1741,-0.01 -2.6363,-0.01 -5.2723,0 -7.9087,0.01 -1.6777,-5e-4 -3.3556,0 -5.0334,0 -1.1802,0 -1.1802,0 -2.3841,0.01 -0.7377,0 -1.4754,-0.01 -2.2352,-0.01 -0.6451,-6e-4 -1.2902,0 -1.955,0 -2.0523,-0.1126 -3.9583,-0.4828 -5.9648,-0.9191 -1.3002,-0.1715 -2.6022,-0.3283 -3.9058,-0.4714 -33.9017,-3.8739 -67.8548,-11.6412 -98.0383,-28.0728 -0.8832,-0.4562 -1.7663,-0.9123 -2.6761,-1.3823 -15.2474,-7.9569 -29.8254,-17.7347 -42.9951,-28.7932 -0.4772,-0.3961 -0.9543,-0.7919 -1.4457,-1.2002 -1.5963,-1.327 -3.1856,-2.6614 -4.7727,-3.9989 -0.5132,-0.4276 -1.0265,-0.8558 -1.5553,-1.2967 -1.246,-1.0611 -2.4494,-2.1719 -3.644,-3.2908 0,-0.5379 0,-1.0765 0,-1.631 -0.4415,-0.1768 -0.8831,-0.3534 -1.3379,-0.5353 -2.5901,-1.4753 -4.54,-3.4748 -6.6136,-5.5815 -0.4134,-0.4069 -0.8264,-0.8137 -1.2521,-1.2326 -3.0295,-3.0459 -3.0295,-3.0459 -3.0295,-4.8838 -0.5384,0 -1.0766,0 -1.6313,0 -1.3921,-1.5036 -1.3921,-1.5036 -3.1092,-3.6699 -0.6549,-0.8226 -1.31,-1.6442 -1.9846,-2.4912 -0.3596,-0.4532 -0.719,-0.9061 -1.0892,-1.3727 -1.2081,-1.5011 -2.4421,-2.9775 -3.6831,-4.4513 -6.3607,-7.5927 -11.8862,-15.4515 -17.0471,-23.899 -0.4249,-0.6883 -0.8496,-1.3763 -1.2873,-2.0846 -35.8318,-58.2119 -47.4188,-129.6738 -31.9287,-196.297 4.9386,-20.271 11.5758,-39.8724 20.9828,-58.5183 0.5243,-1.0415 0.5243,-1.0415 1.0592,-2.1045 9.5296,-18.6597 21.5494,-36.3742 35.8223,-51.7315 1.5751,-1.6854 1.5751,-1.6854 3.0806,-4.0682 0.5381,0 1.0765,0 1.631,0 0.1683,-0.4329 0.3364,-0.8659 0.5098,-1.3123 1.594,-2.7716 3.7484,-4.8129 6.0147,-7.0469 0.4457,-0.4523 0.8914,-0.9038 1.3508,-1.3702 3.3359,-3.319 3.3359,-3.319 5.1736,-3.319 0,-0.5386 0,-1.0769 0,-1.6316 1.2466,-1.1385 2.5497,-2.2145 3.8738,-3.2621 0.8285,-0.6603 1.6568,-1.3204 2.5105,-2.0003 0.4325,-0.3446 0.865,-0.689 1.3108,-1.0437 1.9609,-1.5888 3.8523,-3.2571 5.7614,-4.9073 41.868,-34.9177 99.8544,-55.5911 154.2898,-55.8279 z m -86.5092,171.1645 c -1.5821,1.9557 -3.0888,3.947 -4.5748,5.9763 -0.5224,0.6731 -1.0451,1.3456 -1.5833,2.0389 -20.042,26.3564 -28.6548,61.007 -24.7662,93.7409 2.8991,21.0889 9.7105,41.7611 22.2717,59.1754 0.5299,0.7593 1.0599,1.518 1.6056,2.3004 7.1762,9.9579 15.4736,18.8719 25.3077,26.2441 0.4209,0.3233 0.8418,0.6464 1.2755,0.9795 28.1786,21.5735 63.6012,29.5866 98.5788,24.9653 32.5179,-4.7644 63.8907,-22.2467 83.6452,-48.7804 22.0283,-30.1676 30.9403,-65.9395 25.3075,-102.951 -3.8974,-23.06 -13.9847,-43.7045 -28.5697,-61.791 -0.5835,-0.7716 -1.167,-1.5433 -1.7682,-2.3379 -0.4929,-0.5742 -0.986,-1.1484 -1.4941,-1.74 -0.5382,0 -1.0766,0 -1.6312,0 -0.2186,-0.4874 -0.4373,-0.9751 -0.6626,-1.4778 -0.9677,-1.7829 -1.8623,-2.9366 -3.4151,-4.2306 -0.5382,0 -1.0765,0 -1.631,0 0,-0.5384 0,-1.0769 0,-1.6316 -2.8075,-2.6578 -5.9101,-4.9812 -8.9712,-7.3399 -0.6545,-0.506 -0.6545,-0.506 -1.3221,-1.0225 -21.7334,-16.6259 -47.3856,-24.4787 -74.5244,-25.8902 -0.5783,-0.034 -1.1568,-0.067 -1.7528,-0.099 -38.0833,-1.875 -76.1217,15.7023 -101.3253,43.8712 z"
             fill="#00a4dd"
             id="path1"
             style="stroke-width:0.815557" /><path
             d="m 6983.5828,2715.8869 c 0.7227,0.1554 1.4453,0.3107 2.1899,0.47 1.3487,0.2904 2.6969,0.5827 4.0445,0.8773 0.6082,0.1313 1.2162,0.2621 1.8427,0.398 0.5219,0.1137 1.0436,0.2273 1.5812,0.3444 2.4951,0.4714 5.0152,0.8004 7.5291,1.1599 0,47.3672 0,94.7343 0,143.5368 -2.4769,-1.2381 -4.9543,-2.481 -7.3592,-3.8548 -27.1396,-15.3728 -60.8125,-22.6664 -91.9034,-23.033 -1.8195,-0.025 -3.6348,-0.084 -5.4533,-0.1494 -15.2024,-0.4213 -30.736,1.6183 -45.3459,5.833 -0.5714,0.1627 -1.1432,0.3251 -1.7321,0.4928 -21.2758,6.1983 -40.0163,16.8814 -55.7154,32.5039 -1.0951,1.0812 -2.218,2.1343 -3.3462,3.1806 -22.6486,21.3261 -32.6344,53.7082 -33.9953,84.0119 -0.9363,33.034 10.0376,66.6565 32.8003,90.8893 1.6378,1.7811 1.6378,1.7811 3.2211,3.8264 3.0435,3.6843 6.899,6.4404 10.6497,9.3722 0.6816,0.5407 1.3627,1.0809 2.0647,1.6378 32.7862,24.9945 76.6341,30.9298 116.5834,25.5531 2.3202,-0.3413 4.6339,-0.7091 6.9473,-1.0934 0.7016,-0.1134 1.403,-0.2267 2.1258,-0.3436 23.4743,-3.9201 45.5876,-12.3784 66.8904,-22.8038 2.7525,-1.3189 2.7525,-1.3189 3.5681,-1.3189 0,44.6761 0,89.3519 0,135.3821 -6.8963,2.2983 -13.7226,4.0393 -20.7966,5.6067 -0.9628,0.2137 -0.9628,0.2137 -1.945,0.4319 -74.2389,16.3787 -152.5889,14.6785 -246.3453,-32.3707 -6.81,-4.4327 -13.3219,-9.2776 -19.7956,-14.1832 -1.2719,-0.9428 -2.584,-1.8309 -3.9014,-2.7091 0,-0.5386 0,-1.0767 0,-1.6314 -0.4875,-0.2353 -0.9752,-0.4708 -1.4779,-0.7135 -1.7842,-0.9175 -1.7842,-0.9175 -4.2306,-2.5486 0,-0.5381 0,-1.0767 0,-1.6312 -0.4815,-0.2135 -0.9631,-0.4268 -1.4591,-0.6467 -1.8989,-1.0366 -3.0758,-2.1188 -4.5557,-3.6858 -1.7514,-1.8109 -3.4387,-3.3993 -5.403,-4.9951 -3.9628,-3.385 -7.6118,-7.0894 -9.7866,-11.8769 -0.5385,0 -1.0766,0 -1.6313,0 -2.4466,-2.823 -2.4466,-2.823 -2.4466,-4.8929 -0.8074,-0.2693 -1.6147,-0.5387 -2.4467,-0.8156 -1.4366,-1.7267 -1.4366,-1.7267 -3.0074,-3.9762 -0.5761,-0.8177 -1.152,-1.6354 -1.7456,-2.478 -0.5844,-0.831 -1.1689,-1.6614 -1.7715,-2.5172 -1.0697,-1.4278 -2.1399,-2.8549 -3.2111,-4.2815 -3.6257,-4.9789 -6.7279,-10.2306 -9.8347,-15.5412 -1.0708,-1.8075 -2.1979,-3.5787 -3.3161,-5.3573 -3.0837,-5.134 -5.5197,-10.6025 -7.9993,-16.0458 -0.6779,-1.4712 -1.3705,-2.9355 -2.0708,-4.3962 -3.0686,-6.4612 -5.58,-12.9847 -7.821,-19.7751 -0.2611,-0.7883 -0.2611,-0.7883 -0.5275,-1.5927 -5.7744,-17.5317 -9.3631,-35.4139 -11.7059,-53.712 -0.097,-0.7388 -0.1936,-1.4778 -0.293,-2.2395 -8.2565,-66.1503 8.4941,-136.1799 48.9808,-189.393 1.29,-1.6971 2.5667,-3.3993 3.8296,-5.1164 0.6339,-0.8592 1.2675,-1.7176 1.9209,-2.6026 0.8513,-1.1593 0.8513,-1.1593 1.7203,-2.3415 1.8025,-2.2665 3.759,-4.2462 5.8235,-6.2728 0.5888,-0.7573 1.1776,-1.5139 1.7839,-2.294 0.4879,-0.5888 0.9758,-1.1776 1.4782,-1.7836 0.5382,0 1.0766,0 1.6313,0 0.4037,-1.2111 0.4037,-1.2111 0.8153,-2.4472 0.5384,0 1.0766,0 1.6313,0 0,-0.5381 0,-1.076 0,-1.6307 0.538,0 1.0766,0 1.6311,0 0.4037,-1.2111 0.4037,-1.2111 0.8153,-2.4469 0.5386,0 1.0768,0 1.6314,0 0.2069,-0.4813 0.4142,-0.9627 0.6276,-1.4593 1.1134,-2.0006 2.26,-3.0902 4.0107,-4.5555 0.5772,-0.4863 1.1544,-0.9734 1.7492,-1.4746 0.5835,-0.4891 1.1668,-0.9783 1.7681,-1.4816 0.5414,-0.4806 1.0826,-0.9611 1.6407,-1.4556 0.501,-0.4448 1.0028,-0.8896 1.5194,-1.3482 0.4519,-0.4027 0.9042,-0.8054 1.3697,-1.2196 1.1789,-0.8703 1.1789,-0.8703 2.8101,-0.8703 0,-0.5379 0,-1.0759 0,-1.6305 1.8881,-1.5684 3.7824,-3.0369 5.7599,-4.4858 0.5936,-0.4383 1.1872,-0.8767 1.7993,-1.3287 39.1681,-28.705 83.7245,-45.4002 131.9001,-51.2745 0.7341,-0.096 1.4681,-0.1907 2.2247,-0.2898 44.1835,-5.5995 88.365,1.6408 131.4655,10.9049 z"
             fill="#00a4dd"
             id="path2"
             style="stroke-width:0.815557" /><path
             d="m 5677.8823,2715.8869 c 0.7224,0.1554 1.445,0.3107 2.1895,0.47 1.3485,0.2904 2.6975,0.5827 4.0449,0.8773 0.6077,0.1313 1.2163,0.2621 1.8428,0.398 0.5217,0.1137 1.0431,0.2273 1.5811,0.3444 2.4953,0.4714 5.0152,0.8004 7.529,1.1599 0,47.3672 0,94.7343 0,143.5368 -2.5587,-1.279 -5.1152,-2.562 -7.6522,-3.8832 -43.4584,-22.5099 -98.8699,-31.0193 -146.0476,-16.0851 -0.635,0.2081 -1.2701,0.4155 -1.9238,0.6292 -1.5821,0.5173 -3.1733,1.0043 -4.7666,1.4867 -17.6701,5.7105 -33.1313,16.0806 -46.3616,28.9101 -1.1437,1.1081 -2.302,2.2018 -3.46,3.2943 -4.7874,4.6114 -8.7496,9.481 -12.434,15.008 -0.5367,0.8042 -1.0725,1.6085 -1.6249,2.4375 -11.8971,18.5854 -19.673,40.6255 -20.395,62.8067 -0.022,0.5132 -0.044,1.0264 -0.065,1.5554 -1.2246,33.3798 8.3744,66.781 30.9533,91.8764 0.855,0.9101 0.855,0.9101 1.7268,1.8383 1.637,1.7811 1.637,1.7811 3.2271,3.8296 18.509,22.4576 54.2648,34.5038 82.1255,37.5312 17.9987,1.5474 36.3063,0.89 54.1128,-2.0647 0.7016,-0.1134 1.4033,-0.2267 2.1263,-0.3436 21.5234,-3.5942 41.7197,-11.0376 61.4873,-20.0448 2.9601,-1.3457 5.921,-2.6917 8.9711,-4.0779 0,44.6761 0,89.3519 0,135.3821 -6.8967,2.2983 -13.7229,4.0393 -20.7969,5.6067 -0.9628,0.2137 -0.9628,0.2137 -1.9449,0.4319 -68.741,15.1657 -141.6043,15.294 -246.3032,-33.4635 -4.4964,-2.9294 -8.814,-6.0978 -13.1365,-9.2751 -0.898,-0.6363 -1.7973,-1.2701 -2.6981,-1.9018 -0.8255,-0.5836 -1.6505,-1.1672 -2.5007,-1.7682 -0.7298,-0.513 -1.46,-1.026 -2.2111,-1.555 -0.5152,-0.4286 -1.0304,-0.8575 -1.5613,-1.2994 0,-0.5386 0,-1.0767 0,-1.6314 -0.732,-0.1261 -0.732,-0.1261 -1.4778,-0.2548 -2.0395,-0.6407 -2.9058,-1.3509 -4.231,-3.0073 0,-0.5381 0,-1.0767 0,-1.6312 -0.475,-0.2187 -0.9502,-0.4373 -1.4402,-0.6626 -1.8445,-0.9807 -3.2947,-2.0596 -4.8806,-3.415 -0.5,-0.4206 -1.0003,-0.8411 -1.5157,-1.2746 -1.1343,-1.1724 -1.1343,-1.1724 -1.1343,-2.803 -0.721,-0.3078 -0.721,-0.3078 -1.4562,-0.6213 -2.0315,-1.136 -3.1301,-2.3321 -4.6095,-4.1192 -1.5486,-1.8576 -3.1046,-3.6137 -4.8171,-5.3234 -8.5832,-8.5962 -15.8151,-18.1907 -22.5548,-28.2676 -0.3368,-0.4952 -0.6737,-0.9916 -1.0203,-1.5024 -23.3972,-34.6933 -35.7964,-75.3156 -39.7575,-116.7523 -0.1155,-1.1823 -0.1155,-1.1823 -0.2333,-2.3882 -3.2488,-37.0316 0.8798,-74.8532 12.4666,-110.1582 0.2368,-0.7333 0.4744,-1.4666 0.7183,-2.2224 5.9405,-18.1099 14.3437,-35.5202 24.5638,-51.6044 0.5589,-0.881 1.1184,-1.762 1.6943,-2.6697 3.2349,-4.9542 6.699,-9.7129 10.2838,-14.4187 1.3269,-1.7475 2.634,-3.5017 3.9248,-5.2753 0.333,-0.4546 0.6658,-0.9083 1.0091,-1.3768 0.9306,-1.2719 1.8583,-2.5469 2.7857,-3.8226 0.4967,-0.5925 0.9946,-1.1856 1.5068,-1.7967 0.5379,0 1.0759,0 1.6305,0 0.1851,-0.4375 0.3702,-0.875 0.561,-1.3251 1.4424,-2.6093 3.1395,-4.6207 5.1485,-6.8301 0.5379,0 1.0759,0 1.6305,0 0.2187,-0.5217 0.4373,-1.0434 0.6627,-1.5802 0.9689,-1.6821 0.9689,-1.6821 3.4152,-2.4977 0.4037,-1.2111 0.4037,-1.2111 0.8158,-2.4469 1.3058,-1.2868 1.3058,-1.2868 2.9559,-2.6502 2.2156,-1.8735 4.311,-3.7707 6.3208,-5.8621 3.4519,-3.4828 7.2189,-6.4553 11.1117,-9.4299 0.535,-0.4111 1.0688,-0.8227 1.6194,-1.2469 39.3546,-30.1723 85.5171,-47.4126 134.5785,-53.3951 0.7341,-0.096 1.4682,-0.1907 2.224,-0.2898 44.1835,-5.5995 88.365,1.6408 131.466,10.9049 z"
             fill="#00a4dd"
             id="path3"
             style="stroke-width:0.815557" /><path
             d="m 6335.1315,2715.0077 c 37.3609,-0.7095 97.2164,-0.7553 131.4514,16.3615 0,34.1803 0,68.3599 0,103.5757 -3.6763,-0.5254 -6.9492,-1.0574 -10.4938,-1.972 -44.8452,-11.3362 -106.3307,-25.2038 -149.2753,-1.6214 -9.4678,5.7141 -14.6406,11.6895 -17.6905,22.4245 -1.4943,8.0332 0.9352,16.8863 5.378,23.5773 9.291,12.4135 24.1572,18.5571 38.3819,23.6515 1.0257,0.3729 2.0514,0.7458 3.077,1.119 6.5925,2.38 13.2296,4.6182 19.8856,6.8134 0.7958,0.2625 1.5917,0.5254 2.4112,0.7965 3.9375,1.2983 7.8784,2.5865 11.8245,3.858 15.0447,4.8906 29.5069,11.0023 43.4903,18.4037 0.5282,0.2773 1.0558,0.5542 1.6002,0.8393 36.3843,19.2405 65.788,50.7125 78.1235,90.3373 8.2872,27.5947 6.866,58.3691 -1.4305,85.7987 -0.1755,0.5824 -0.3508,1.1645 -0.5313,1.764 -6.8724,22.1989 -18.7564,40.8798 -34.5378,57.7711 -0.619,0.6635 -1.2381,1.3269 -1.8763,2.0104 -35.2046,36.4726 -91.2239,53.0321 -140.5998,55.7221 -1.8983,0.061 -1.8983,0.061 -3.5079,0.9875 -1.4356,0.081 -2.8746,0.1042 -4.3125,0.1054 -1.3517,0.01 -1.3517,0.01 -2.7309,0.01 -0.9775,0 -1.9552,0 -2.9628,-0.01 -1.002,0 -2.0034,0 -3.0354,0 -2.6681,7e-4 -5.336,0 -8.0036,-0.01 -2.704,0 -5.4083,0 -8.112,0.01 -2.0608,-5e-4 -4.1216,0 -6.1824,0 -0.9724,0 -1.9456,0 -2.9476,0.01 -0.909,0 -1.8178,-0.01 -2.7539,-0.01 -0.7975,-7e-4 -1.5949,0 -2.4163,0 -2.1797,-0.1017 -4.1586,-0.4773 -6.291,-0.9192 -1.5802,-0.01 -3.1605,-0.01 -4.7406,0.012 -3.1931,-0.021 -6.356,-0.3635 -9.5316,-0.6745 -1.6216,-0.155 -3.2434,-0.3099 -4.8647,-0.4648 -0.8673,-0.084 -1.7342,-0.1667 -2.6279,-0.2524 -2.7185,-0.2524 -5.4383,-0.4805 -8.1592,-0.7034 -14.4647,-1.2217 -28.8322,-2.9876 -43.2212,-4.8997 -0.9437,-0.1254 -1.8877,-0.2509 -2.8604,-0.3798 -2.7365,-0.3649 -5.4738,-0.7324 -8.2098,-1.1015 -1.2119,-0.1633 -1.2119,-0.1633 -2.4485,-0.3293 -5.9223,-0.8063 -11.8171,-1.7148 -17.7269,-2.6241 0,-38.2165 0,-76.4338 0,-115.8087 13.0487,3.2622 13.0487,3.2622 19.2864,4.865 50.0088,12.8197 121.0014,27.7104 169.2594,1.0383 3.9307,-2.4096 7.3956,-4.86 10.4491,-8.3496 0.3994,-0.4259 0.7988,-0.8518 1.2105,-1.2903 6.9929,-7.6679 9.0842,-16.136 8.834,-26.426 -0.3721,-6.6097 -3.1101,-12.1236 -6.8207,-17.4992 -0.7773,-1.271 -0.7773,-1.271 -0.7773,-2.9023 -1.0763,-0.5379 -2.1529,-1.0765 -3.2622,-1.631 0,-0.5385 0,-1.0764 0,-1.6311 -0.4666,-0.2165 -0.9334,-0.433 -1.4141,-0.6562 -1.9368,-1.0217 -3.5643,-2.2084 -5.3139,-3.5234 -7.5883,-5.3609 -16.0587,-9.4093 -24.9286,-12.1408 -3.1736,-0.9852 -6.2965,-2.089 -9.4265,-3.2019 -0.8912,-0.313 -0.8912,-0.313 -1.7998,-0.6325 -2.74,-0.9645 -5.4616,-1.9529 -8.1718,-2.9992 -4.9084,-1.8731 -9.4377,-3.1522 -14.6481,-3.8614 -21.2401,-3.1518 -45.5386,-14.973 -63.1545,-26.8109 -1.5283,-0.9532 -3.0571,-1.9048 -4.5875,-2.8547 -8.6977,-5.5627 -17.6382,-11.6558 -24.7723,-19.1653 -0.7492,-0.724 -0.7492,-0.724 -1.5132,-1.4623 -0.7902,-0.765 -0.7902,-0.765 -1.5963,-1.545 -0.7394,-0.7116 -0.7394,-0.7116 -1.4941,-1.437 -1.1056,-1.2649 -1.1056,-1.2649 -1.1056,-2.8957 -0.5379,0 -1.0763,0 -1.6307,0 -1.0421,-1.0789 -1.0421,-1.0789 -2.2208,-2.6027 -0.4355,-0.5627 -0.8709,-1.1251 -1.3199,-1.7046 -0.4629,-0.6138 -0.9266,-1.2277 -1.4039,-1.8604 -0.7144,-0.9454 -0.7144,-0.9454 -1.4433,-1.9102 -22.7848,-30.5812 -30.1913,-69.153 -24.9385,-106.6557 3.7574,-24.2446 12.2234,-46.822 27.2487,-66.3193 0.5715,-0.754 1.1436,-1.5073 1.7328,-2.2841 3.4728,-4.4697 7.245,-8.4712 11.3156,-12.3958 1.9509,-1.9475 3.8996,-3.8971 5.8363,-5.859 33.7835,-32.4883 85.532,-44.571 131.0296,-45.5721 z"
             fill="#00a4dd"
             id="path4"
             style="stroke-width:0.815557" /><path
             d="m 7165.614,1721.5619 c 1.1478,-0.015 1.1478,-0.015 2.3192,-0.031 4.4003,-0.01 8.0529,0.3757 12.2587,1.8137 0.8167,0.2219 1.6338,0.4438 2.4753,0.6725 17.6241,5.0257 30.7377,15.0307 40.077,30.7554 5.8863,11.1801 7.4465,22.3283 7.4039,34.7923 0,1.1536 0.01,2.3083 0.01,3.462 0.01,3.1632 0,6.3263 0,9.4896 0,3.4443 0,6.8887 0.01,10.3331 0.01,6.0346 0.01,12.0682 0.01,18.1029 -0.01,8.9728 6e-4,17.9466 0.01,26.9194 0.013,16.9593 0.014,33.9185 0.012,50.8776 0,13.096 0,26.1921 0,39.2881 5e-4,1.8816 0,3.7633 0,5.6443 8e-4,2.8351 0,5.6704 0,8.5058 0.01,26.3599 0.011,52.7207 0.01,79.0816 -1e-4,0.9939 -2e-4,1.9876 -3e-4,3.0115 -6e-4,5.0362 0,10.0735 0,15.1107 -3e-4,1.5004 -3e-4,1.5004 -4e-4,3.031 -3e-4,2.0231 -5e-4,4.0462 0,6.0692 -0.01,31.4772 0,62.9543 0.018,94.4325 0.018,35.3646 0.026,70.7292 0.023,106.0942 -3e-4,3.7712 -7e-4,7.5418 0,11.3125 -1e-4,0.9288 -2e-4,1.8576 -3e-4,2.814 0,14.0164 0.01,28.0327 0.014,42.049 0.01,15.9404 0.012,31.8816 0,47.8225 -0.01,8.9196 -0.01,17.8389 0.01,26.7587 0.01,5.9614 0.01,11.922 -0.01,17.8831 -0.01,3.3944 -0.01,6.7888 0,10.1832 0.01,3.0941 0.01,6.1886 -0.01,9.2829 0,1.6235 0.01,3.2479 0.015,4.8722 -0.112,18.706 -6.5352,34.7177 -19.8969,47.9687 -13.2387,12.5671 -30.018,16.4708 -47.7387,17.2537 -3.2978,-0.1486 -6.3035,-0.7252 -9.5031,-1.5038 -0.909,-0.2194 -0.909,-0.2194 -1.8368,-0.443 -5.289,-1.3312 -10.2372,-3.1064 -15.1367,-5.5204 -0.6729,-0.3312 -1.3458,-0.6624 -2.039,-1.0039 -13.6165,-7.4408 -24.4931,-20.8681 -28.9522,-35.6961 -2.0541,-7.8484 -2.799,-15.2235 -2.7567,-23.3175 0,-1.1591 -0.01,-2.3182 -0.012,-3.478 -0.01,-3.1658 -0.01,-6.3313 0,-9.4974 0.01,-3.452 0,-6.904 -0.01,-10.356 -0.01,-6.0431 -0.012,-12.0864 -0.01,-18.1304 0.01,-8.9869 0,-17.9739 -0.01,-26.9609 -0.017,-16.0532 -0.019,-32.1057 -0.014,-48.1591 0,-14.0498 0,-28.0994 0,-42.1491 -6e-4,-1.8855 0,-3.7701 0,-5.6556 0,-2.8412 0,-5.6815 0,-8.5228 -0.01,-26.4089 -0.013,-52.8179 -0.01,-79.2275 3e-4,-1.4927 3e-4,-1.4927 8e-4,-3.0164 0,-8.0822 0.01,-16.1653 0.01,-24.2483 0.01,-31.5272 0,-63.0544 -0.018,-94.5807 -0.022,-35.4295 -0.033,-70.8589 -0.027,-106.2877 6e-4,-3.7782 0,-7.5563 0,-11.3345 1e-4,-0.9306 3e-4,-1.8609 5e-4,-2.8188 0,-14.0387 -0.01,-28.0765 -0.016,-42.1151 -0.013,-15.9667 -0.013,-31.9333 0,-47.8992 0.01,-8.9321 0.01,-17.8646 -0.01,-26.796 -0.01,-5.9719 -0.01,-11.9426 0.01,-17.9135 0.01,-3.3995 0.01,-6.798 0,-10.1965 -0.084,-23.8896 2.4037,-43.1844 19.539,-61.197 9.7763,-9.2739 21.6551,-14.0094 34.7086,-16.6648 1.8952,-1.8947 6.5301,-0.966 9.0732,-0.9678 z"
             fill="#00a4dd"
             id="path5"
             style="stroke-width:0.815557" /><path
             d="m 5804.9142,1721.5619 c 1.2168,-0.015 1.2168,-0.015 2.4578,-0.031 4.2463,-0.01 7.682,0.1828 11.6614,1.8137 1.186,0.3328 1.186,0.3328 2.3958,0.6725 17.2773,4.87 31.309,14.8926 40.2144,30.6347 4.4346,8.3519 7.2369,17.9724 7.244,27.4355 0,0.9749 0.01,1.9486 0.01,2.9528 0,1.0653 0,2.1305 0,3.228 0,1.152 0,2.3032 0.01,3.4554 0.01,3.1747 0.01,6.3503 0.01,9.525 1e-4,3.4507 0.01,6.9014 0.01,10.3521 0.01,6.8493 0.011,13.6976 0.013,20.5459 0,8.2021 0.01,16.4032 0.017,24.6053 0.018,19.8256 0.026,39.6501 0.034,59.4756 0,9.3792 0.01,18.7573 0.013,28.1355 0.015,32.1037 0.028,64.2063 0.034,96.309 4e-4,2.0155 8e-4,4.031 0,6.0466 2e-4,0.9998 4e-4,1.9996 6e-4,3.0294 0,5.0643 0,10.1286 0,15.1928 3e-4,1.5077 3e-4,1.5077 6e-4,3.0455 0.01,32.583 0.026,65.166 0.054,97.7488 0.029,34.4466 0.045,68.8942 0.048,103.3408 4e-4,3.7821 8e-4,7.5641 0,11.3461 10e-5,0.9307 2e-4,1.8622 3e-4,2.8218 0,14.9831 0.015,29.9658 0.033,44.9492 0.017,15.0628 0.022,30.1256 0.014,45.1888 -0.01,8.9466 5e-4,17.8928 0.019,26.8392 0.012,5.981 0.01,11.9619 -4e-4,17.9429 -0.01,3.4047 -0.01,6.8098 0.01,10.2142 0.1216,31.4344 0.1216,31.4344 -6.7322,44.0017 -0.2795,0.5329 -0.5581,1.0671 -0.8454,1.6166 -2.5277,4.6797 -5.5597,8.7762 -9.1451,12.7064 -0.4215,0.4962 -0.8432,0.9923 -1.2773,1.5038 -11.5327,12.7174 -29.4101,18.1065 -46.0313,18.936 -18.0513,-0.2829 -34.2593,-7.3674 -47.0725,-20.0062 -12.712,-13.2344 -16.9399,-30.4184 -16.8418,-48.2967 0,-1.1586 -0.01,-2.3162 -0.011,-3.4744 -0.01,-3.1582 0,-6.3162 0.01,-9.4746 0.01,-3.4452 0,-6.8908 -0.01,-10.3361 -0.01,-6.0296 -0.01,-12.0601 0,-18.0908 0.01,-8.9666 0.01,-17.9343 0,-26.902 -0.014,-16.017 -0.012,-32.0349 -0.01,-48.0519 0.01,-14.0172 0.01,-28.0343 0.01,-42.0515 -3e-4,-0.9305 -5e-4,-1.8609 -6e-4,-2.8188 0,-3.7763 0,-7.5523 0,-11.3281 -0.01,-35.4138 -8e-4,-70.8276 0.013,-106.2413 0.012,-31.4556 0.011,-62.9114 0,-94.3676 -0.014,-35.3497 -0.019,-70.6992 -0.011,-106.048 0,-3.7697 0,-7.5384 0,-11.3071 2e-4,-0.9284 5e-4,-1.8566 6e-4,-2.8125 0,-14.0077 -5e-4,-28.0151 -0.01,-42.0225 -0.01,-15.929 -0.01,-31.858 0.01,-47.787 0.01,-8.9124 0.01,-17.8246 0,-26.7379 -0.01,-5.9553 0,-11.9115 0.01,-17.8679 0.01,-3.3909 0.01,-6.7828 0,-10.1738 -0.01,-3.0918 -0.01,-6.1835 0.01,-9.2755 0,-1.6218 -0.01,-3.2446 -0.014,-4.8675 0.1121,-18.0636 6.2303,-33.9159 18.6752,-47.0963 9.4144,-8.7146 20.5483,-13.8844 32.9436,-16.585 4.2555,-0.9957 7.3749,-1.5574 12.065,-1.5605 z"
             fill="#00a4dd"
             id="path6"
             style="stroke-width:0.815557" /><path
             d="m 5867.9669,2719.1365 c 41.9847,0 83.9695,0 127.2262,0 0,163.6324 0,327.265 0,495.8559 -41.9847,0 -83.9695,0 -127.2262,0 0,-163.6325 0,-327.2651 0,-495.8559 z"
             fill="#00a4dd"
             id="path7"
             style="stroke-width:0.815557" /><path
             d="m 6184.4014,1968.0117 c 13.6262,10.943 22.9004,25.816 24.8953,43.4145 0.5568,5.7494 0.5026,11.5038 0.4958,17.2738 0,1.2671 0,2.5332 0.01,3.8003 0.01,3.4628 0.01,6.9268 0,10.3904 -1e-4,3.7423 0.01,7.4845 0.01,11.2265 0.01,7.3249 0.01,14.6498 0.01,21.9758 4e-4,5.9562 0,11.9135 0.01,17.8708 0.01,16.9037 0.011,33.808 0.011,50.7123 0,0.9104 0,1.8207 0,2.7594 0,0.9116 -1e-4,1.8232 -1e-4,2.762 -4e-4,14.7716 0.01,29.5421 0.019,44.3136 0.012,15.1814 0.018,30.3627 0.017,45.5449 -4e-4,8.5175 0,17.0345 0.011,25.5515 0.01,7.2529 0.01,14.5049 0,21.7575 0,3.6965 0,7.3927 0.01,11.089 0.01,3.3916 0.01,6.783 0,10.1741 0,1.2196 2e-4,2.4394 0.01,3.6581 0.076,20.8464 -4.4248,38.8563 -19.3989,54.1997 -12.1854,11.6253 -27.6819,17.7924 -44.4732,17.7635 -1.2298,0 -1.2298,0 -2.484,0 -7.1881,-0.1163 -13.4917,-1.2485 -20.3007,-3.5636 -0.6685,-0.2258 -1.3374,-0.452 -2.026,-0.6852 -16.3916,-6.4907 -28.2191,-19.2922 -35.3363,-35.1483 -3.723,-9.7524 -4.5915,-19.3447 -4.5471,-29.6857 0,-1.3083 -0.01,-2.6174 -0.013,-3.9257 -0.012,-3.5648 -0.01,-7.1294 0,-10.6941 0.01,-3.8567 -0.01,-7.7129 -0.015,-11.5692 -0.014,-7.544 -0.015,-15.087 -0.011,-22.631 0,-6.1348 0,-12.2692 0,-18.4044 -5e-4,-0.8747 0,-1.7499 0,-2.6514 0,-1.7777 0,-3.5555 -0.01,-5.3336 -0.012,-16.6516 -0.01,-33.3031 0,-49.9547 0.01,-15.2133 0,-30.4255 -0.023,-45.6389 -0.02,-15.6436 -0.028,-31.2882 -0.023,-46.9329 0,-8.7736 0,-17.547 -0.014,-26.3201 -0.013,-7.4692 -0.013,-14.9376 0,-22.4072 0.01,-3.8054 0.01,-7.611 -0.01,-11.4172 -0.012,-3.493 -0.01,-6.9849 0.01,-10.478 0,-1.2548 7e-4,-2.5095 -0.01,-3.7642 -0.073,-11.1296 1.3272,-22.6239 6.7416,-32.5498 0.4205,-0.8019 0.4205,-0.8019 0.8493,-1.6198 2.5336,-4.6826 5.5414,-8.7787 9.1427,-12.7027 0.551,-0.6256 1.1018,-1.2512 1.6688,-1.8962 21.4222,-23.0241 60.0412,-24.7869 84.7796,-6.2596 z"
             fill="#00a4dd"
             id="path8"
             style="stroke-width:0.815557" /><path
             d="m 6867.0195,1969.6433 c 12.7995,10.7594 20.2377,25.1649 22.8353,41.5926 0.3212,4.4512 0.3318,8.8816 0.3109,13.3408 0,1.31 0.01,2.62 0.012,3.9305 0.01,3.5691 0.01,7.1386 0,10.7082 -0.01,3.8611 0,7.7226 0.01,11.5844 0.011,7.5523 0.01,15.1045 0,22.6578 -0.01,6.1401 -0.01,12.2813 0,18.4223 3e-4,0.8755 7e-4,1.7511 0,2.6528 7e-4,1.7796 0,3.5582 0,5.3378 0.01,16.6635 0,33.3269 -0.014,49.9903 -0.011,14.2819 -0.01,28.5647 0,42.8475 0.013,16.6055 0.019,33.2114 0.011,49.817 -7e-4,1.7726 0,3.5452 0,5.3176 -2e-4,0.872 -7e-4,1.7437 0,2.6422 0,6.1298 0,12.2594 0.01,18.3891 0.01,7.4759 0.01,14.9509 -0.01,22.4259 -0.01,3.8106 -0.01,7.6214 0,11.4315 0.01,3.4944 0,6.988 -0.01,10.4825 0,1.258 0,2.516 0.01,3.7731 0.084,18.8088 -5.6009,35.7536 -18.8731,49.3199 -12.9747,12.6925 -29.763,18.0592 -47.5817,17.9839 -9.438,-0.2467 -18.4514,-2.4657 -26.8374,-6.8714 -0.5888,-0.2914 -1.1776,-0.5829 -1.7844,-0.8824 -14.5063,-7.5303 -24.6157,-20.3514 -30.2359,-35.5275 -3.2137,-10.2542 -3.1699,-20.9815 -3.1579,-31.6241 0,-1.2568 0,-2.5142 -0.01,-3.7716 -0.01,-3.4334 -0.01,-6.8677 -0.01,-10.3011 1e-4,-3.7117 -0.01,-7.4233 -0.01,-11.1349 -0.01,-7.2636 -0.01,-14.5271 -0.01,-21.7907 -4e-4,-5.9066 0,-11.8134 -0.01,-17.7201 -0.01,-16.7638 -0.011,-33.5275 -0.011,-50.2916 0,-0.903 0,-1.8055 0,-2.7359 1e-4,-1.3558 1e-4,-1.3558 1e-4,-2.7388 4e-4,-14.6471 -0.01,-29.2943 -0.019,-43.9415 -0.012,-15.0566 -0.018,-30.1122 -0.017,-45.1687 3e-4,-8.4464 0,-16.8928 -0.011,-25.3389 -0.01,-7.1914 -0.01,-14.3825 0,-21.5737 0,-3.665 0,-7.3298 -0.01,-10.9948 -0.01,-3.3623 -0.01,-6.7255 0,-10.0877 0,-1.2089 -2e-4,-2.4179 -0.01,-3.6268 -0.066,-18.2735 2.7594,-35.2541 14.8888,-49.555 0.5642,-0.683 1.1291,-1.3669 1.7106,-2.0704 22.4329,-26.1917 62.3336,-27.0106 88.8158,-6.9001 z"
             fill="#00a4dd"
             id="path9"
             style="stroke-width:0.815557" /><path
             d="m 7548.513,1970.4777 c 13.19,11.0703 20.548,26.9913 22.1629,43.9954 0.3349,4.9879 0.2808,9.9839 0.2749,14.9812 0,1.259 0,2.5192 0.01,3.7794 0.01,3.4448 0.01,6.8896 0,10.3344 -1e-4,3.7225 0.01,7.444 0.01,11.1666 0.01,7.2856 0.01,14.5721 0.01,21.8577 4e-4,5.9256 0,11.8501 0.01,17.7757 0.01,16.8139 0.011,33.627 0.011,50.441 0,0.906 0,1.8119 0,2.7444 0,0.9075 -1e-4,1.814 -1e-4,2.7485 -4e-4,14.6915 0.01,29.3838 0.019,44.0754 0.012,15.1007 0.018,30.2011 0.017,45.3016 -4e-4,8.4717 0,16.9433 0.011,25.415 0.01,7.214 0.01,14.4272 0,21.6413 0,3.6765 0,7.3527 0.01,11.0294 0.01,3.3733 0.01,6.7463 0,10.1195 0,1.2129 2e-4,2.4258 0.01,3.6387 0.076,21.1396 -4.5499,40.029 -19.7753,55.4218 -13.3497,12.9176 -30.5962,17.391 -48.6559,17.1744 -16.1703,-0.4585 -31.0664,-7.9042 -42.6923,-18.9329 -4.3857,-4.8752 -7.8119,-10.2728 -10.8572,-16.0565 -0.2556,-0.4679 -0.5114,-0.9355 -0.7746,-1.4177 -5.0844,-10.2187 -5.9806,-21.6412 -5.909,-32.8438 -0.01,-1.3105 -0.01,-2.6213 -0.016,-3.9322 -0.014,-3.5592 -0.01,-7.118 0,-10.6771 0.01,-3.855 -0.01,-7.7099 -0.013,-11.5649 -0.015,-7.5343 -0.012,-15.0696 0,-22.6048 0.01,-6.1278 0.01,-12.2557 0.01,-18.3835 -5e-4,-0.8744 0,-1.7489 0,-2.6502 0,-1.777 0,-3.5546 0,-5.3311 -0.01,-16.6359 0,-33.2716 0.019,-49.9065 0.015,-14.2514 0.013,-28.5029 0,-42.7533 -0.018,-16.5791 -0.025,-33.1585 -0.014,-49.7373 0,-1.7706 0,-3.5401 0,-5.3107 5e-4,-0.8707 0,-1.7423 0,-2.639 0,-6.1159 0,-12.2308 -0.01,-18.3457 -0.01,-7.4603 -0.01,-14.9204 0.011,-22.3799 0.01,-3.8011 0.013,-7.6013 0,-11.4027 -0.01,-3.4885 -0.01,-6.9766 0.013,-10.4649 0,-1.252 0,-2.5049 -0.01,-3.7578 -0.067,-11.1044 1.3154,-22.5956 6.7464,-32.4853 0.2795,-0.5311 0.5594,-1.0627 0.8474,-1.61 7.9711,-14.7658 20.8147,-25.556 36.872,-30.7059 21.9568,-6.1425 43.6637,-1.65 61.6725,12.2523 z"
             fill="#00a4dd"
             id="path10"
             style="stroke-width:0.815557" /><path
             d="m 5503.1085,1970.6625 c 11.9267,10.0626 19.5235,24.2843 21.5101,39.7576 0.054,1.5969 0.072,3.1943 0.052,4.792 -0.01,0.7879 -0.015,1.5769 -0.023,2.3894 -0.014,0.8861 -0.014,0.8861 -0.029,1.7902 1.3463,0 2.6917,0 4.0779,0 0.058,39.1822 0.1,78.3644 0.1253,117.5477 0,4.6281 0.01,9.2559 0.01,13.8842 7e-4,0.9214 0,1.8429 0,2.7921 0.011,14.9095 0.031,29.819 0.054,44.7275 0.024,15.304 0.038,30.6079 0.043,45.9118 0,9.4398 0.014,18.8795 0.035,28.3192 0.013,6.4769 0.018,12.9546 0.014,19.4317 0,3.7341 0,7.4688 0.014,11.2032 0.013,3.4249 0.013,6.8501 0.01,10.2758 0,1.2324 0,2.4658 0.01,3.6984 0.1049,17.7775 -5.0524,34.7928 -17.4322,48.0029 -0.539,0 -1.0769,0 -1.6316,0 0,0.5379 0,1.0766 0,1.6309 -14.5974,13.3257 -32.3009,17.9535 -51.6587,17.2768 -14.9318,-1.0316 -30.3469,-8.8198 -40.4984,-19.7235 0,-0.5379 0,-1.0765 0,-1.6307 -0.8074,-0.2693 -1.6148,-0.5388 -2.4471,-0.8156 -1.2911,-1.6948 -2.4397,-3.3501 -3.5682,-5.1485 -0.3249,-0.5145 -0.6497,-1.0289 -0.9847,-1.5587 -9.0759,-14.7178 -10.2527,-29.8494 -10.2418,-46.7534 0,-1.2592 -0.01,-2.5185 -0.01,-3.777 -0.01,-3.4353 -0.01,-6.8698 -0.01,-10.3053 0,-3.7139 -0.01,-7.4281 -0.013,-11.1427 -0.012,-8.1103 -0.017,-16.2205 -0.02,-24.3308 0,-5.0708 -0.01,-10.1417 -0.01,-15.2119 -0.01,-14.0589 -0.019,-28.118 -0.022,-42.1771 -1e-4,-0.899 -3e-4,-1.797 -5e-4,-2.7228 -1e-4,-0.9001 -4e-4,-1.8011 -6e-4,-2.7291 -3e-4,-1.8244 -7e-4,-3.6486 0,-5.473 -10e-5,-0.9056 -3e-4,-1.8103 -6e-4,-2.7432 0,-14.6575 -0.018,-29.3158 -0.038,-43.9732 -0.02,-15.0756 -0.03,-30.1501 -0.031,-45.2247 -8e-4,-8.454 -0.01,-16.9068 -0.021,-25.3608 -0.013,-7.1994 -0.017,-14.3986 -0.01,-21.5969 0,-3.6673 0,-7.3347 -0.01,-11.0022 -0.078,-25.6943 0.6255,-49.4719 19.2129,-69.3172 23.3661,-22.0986 59.2394,-19.7021 83.5428,-0.7131 z"
             fill="#00a4dd"
             id="path11"
             style="stroke-width:0.815557" /><path
             d="m 7885.3907,2137.8508 c 1.1915,0.9969 2.3628,2.0184 3.517,3.0582 0.7295,0.6542 1.4591,1.308 2.2109,1.9816 12.9721,12.2609 19.5176,28.6144 20.09,46.3705 0.054,3.0583 0.05,6.1144 0.037,9.1732 0,1.3784 0.01,2.7577 0.014,4.1362 0.012,3.7036 0.01,7.4071 0,11.1108 -0.01,3.9017 -5e-4,7.8034 0,11.7046 0.01,6.5479 0,13.0963 -0.014,19.6438 -0.013,7.5387 -0.01,15.0762 0.01,22.6149 0.012,6.5072 0.014,13.0133 0.01,19.5205 0,3.8711 -0.01,7.7421 0,11.6134 0.01,3.6413 0,7.283 -0.013,10.925 0,1.3255 0,2.651 0,3.976 0.077,19.895 -4.9336,37.9624 -19.181,52.5226 -13.3347,12.7563 -29.4361,18.3148 -47.6063,18.1235 -14.9015,-0.4727 -29.2459,-5.7679 -40.3747,-15.8773 -0.5981,-0.5238 -1.1964,-1.0469 -1.8127,-1.5867 -12.0183,-11.1725 -18.7704,-27.0579 -19.6199,-43.3809 -0.1211,-3.6811 -0.1126,-7.3622 -0.1013,-11.0458 -0.01,-1.401 -0.011,-2.8024 -0.018,-4.2041 -0.015,-3.7692 -0.014,-7.5393 -0.01,-11.3087 0,-3.1635 0,-6.3264 -0.01,-9.4895 -0.012,-7.4715 -0.01,-14.9419 0,-22.4131 0.01,-7.6711 0,-15.342 -0.024,-23.0132 -0.018,-6.6206 -0.024,-13.2414 -0.019,-19.8613 0,-3.9393 0,-7.8782 -0.013,-11.8171 -0.013,-3.7074 -0.01,-7.4144 0.01,-11.1218 0,-1.3486 6e-4,-2.6981 -0.01,-4.0466 -0.1114,-18.8644 5.0216,-36.7376 18.1377,-50.8357 22.6759,-21.7808 59.1824,-25.4054 84.7891,-6.473 z"
             fill="#00a4dd"
             id="path12"
             style="stroke-width:0.815557" /><path
             d="m 6522.6362,2136.7519 c 1.7441,1.3453 3.4312,2.7352 5.1133,4.1571 0.905,0.6369 0.905,0.6369 1.8286,1.2867 0.473,0.3831 0.946,0.766 1.4337,1.1601 0,0.5379 0,1.0763 0,1.6305 0.5379,0 1.0763,0 1.6307,0 14.2875,15.8879 17.2527,34.2295 17.2453,54.8153 0,1.3219 0.01,2.6437 0.01,3.9656 0.01,3.5702 0.01,7.1414 0.01,10.7125 6e-4,2.2376 0,4.4751 0.01,6.7127 0.01,7.8253 0.011,15.6502 0.01,23.4758 -4e-4,7.2629 0.01,14.5258 0.022,21.7886 0.011,6.2616 0.015,12.522 0.015,18.7827 -3e-4,3.7284 0,7.456 0.011,11.1846 0.01,3.5115 0.01,7.0229 0,10.5353 0,1.2779 0,2.5559 0.01,3.8337 0.074,19.6603 -3.0028,37.5717 -16.5165,52.7615 -0.4838,0.5607 -0.9674,1.1213 -1.4654,1.6984 -7.0001,7.5834 -16.5516,12.9688 -26.2634,16.2439 -0.7613,0.2596 -1.5225,0.5193 -2.3065,0.7872 -16.8776,4.7933 -34.9297,1.9346 -50.1309,-6.324 -4.4226,-2.547 -8.2481,-5.6896 -11.9916,-9.143 -0.5232,-0.4582 -1.0467,-0.9168 -1.5861,-1.3892 -12.2575,-11.3226 -16.9618,-27.3356 -17.9869,-43.4659 -0.1165,-4.3888 -0.1201,-8.7749 -0.1185,-13.1643 0,-1.3061 -0.01,-2.6116 -0.01,-3.918 -0.01,-3.5236 -0.01,-7.0473 -0.01,-10.5709 -5e-4,-2.2082 0,-4.4164 -0.01,-6.6251 -0.01,-7.7254 -0.011,-15.4498 -0.01,-23.1751 5e-4,-7.1675 -0.01,-14.3357 -0.022,-21.5041 -0.011,-6.1807 -0.015,-12.3623 -0.015,-18.543 3e-4,-3.6799 0,-7.3599 -0.011,-11.0393 -0.01,-3.4656 -0.01,-6.9316 0,-10.3966 0,-1.2613 0,-2.5221 -0.01,-3.7831 -0.076,-19.8067 3.0035,-39.2847 17.3319,-54.2562 0.5385,0 1.0769,0 1.6314,0 0,-0.5379 0,-1.0758 0,-1.6305 21.6707,-20.8573 57.4654,-23.8026 82.1497,-6.6039 z"
             fill="#00a4dd"
             id="path13"
             style="stroke-width:0.815557" /><path
             d="m 5159.3882,2137.8125 c 14.4684,11.4152 22.7541,26.4407 25.1453,44.6896 0.3965,4.8354 0.3359,9.6857 0.3163,14.5337 0,1.4137 0.01,2.827 0.013,4.2404 0.012,3.8016 0.01,7.6024 0,11.4044 -0.01,4.0001 -4e-4,8.0003 0,12.0004 0.01,6.7132 0,13.4264 -0.013,20.1397 -0.014,7.735 -0.01,15.4698 0.01,23.2054 0.012,6.6711 0.013,13.3418 0.01,20.0126 0,3.9715 -0.01,7.943 0,11.9142 0.01,3.7349 0,7.4692 -0.013,11.2039 0,1.3616 0,2.7233 0,4.0851 0.072,19.2712 -5.1591,37.0219 -18.879,51.0652 -12.8869,12.6101 -29.5307,18.0546 -47.2475,17.9839 -9.544,-0.2359 -18.7108,-2.3404 -27.1716,-6.8714 -0.7587,-0.3926 -1.5174,-0.7843 -2.2998,-1.1884 -6.2429,-3.4086 -11.6135,-7.4606 -16.4575,-12.6766 0,-0.5379 0,-1.0758 0,-1.6305 -0.5385,0 -1.0764,0 -1.6311,0 -1.2504,-1.6231 -2.3674,-3.2217 -3.4666,-4.9444 -0.3259,-0.5104 -0.6517,-1.0206 -0.9877,-1.5454 -7.6766,-12.4148 -9.6567,-24.7212 -9.6474,-39.0657 -0.01,-1.4759 -0.011,-2.951 -0.017,-4.4268 -0.015,-3.9936 -0.018,-7.9877 -0.02,-11.9818 0,-2.5004 -0.01,-5.0005 -0.01,-7.5012 -0.016,-8.7393 -0.023,-17.4786 -0.021,-26.218 0,-8.1205 -0.017,-16.2405 -0.044,-24.3613 -0.022,-6.992 -0.031,-13.9844 -0.03,-20.9763 4e-4,-4.1675 -0.01,-8.334 -0.022,-12.5015 -0.016,-3.9241 -0.016,-7.8479 0,-11.772 0,-1.4311 0,-2.862 -0.013,-4.293 -0.1186,-18.2326 5.0989,-35.0826 18.1486,-48.3696 4.2641,-4.2005 8.82,-7.4961 14.0687,-10.398 0.5401,-0.3145 1.0812,-0.6284 1.6371,-0.9527 21.3173,-11.6391 49.1432,-8.3611 68.6374,5.1961 z"
             fill="#00a4dd"
             id="path14"
             style="stroke-width:0.815557" /><path
             d=""
             fill="#0097d9"
             id="path15" /><path
             d=""
             fill="#0097d9"
             id="path16" /><path
             d=""
             fill="#0097d9"
             id="path17" /><path
             d=""
             fill="#0097d9"
             id="path18" /></g></g></svg></g></svg>
