<?xml version="1.0" encoding="UTF-8" standalone="no"?>
<svg
   width="47.850468"
   height="47.850468"
   viewBox="0 0 256 255.81596"
   fill="none"
   version="1.1"
   id="svg28"
   sodipodi:docname="es.svg"
   xml:space="preserve"
   inkscape:export-filename="es1.svg"
   inkscape:export-xdpi="96"
   inkscape:export-ydpi="96"
   inkscape:version="1.4.2 (f4327f4, 2025-05-13)"
   xmlns:inkscape="http://www.inkscape.org/namespaces/inkscape"
   xmlns:sodipodi="http://sodipodi.sourceforge.net/DTD/sodipodi-0.dtd"
   xmlns="http://www.w3.org/2000/svg"
   xmlns:svg="http://www.w3.org/2000/svg"><defs
     id="defs28" /><sodipodi:namedview
     id="namedview28"
     pagecolor="#ffffff"
     bordercolor="#000000"
     borderopacity="0.25"
     inkscape:showpageshadow="2"
     inkscape:pageopacity="0.0"
     inkscape:pagecheckerboard="0"
     inkscape:deskcolor="#d1d1d1"
     inkscape:zoom="10.973753"
     inkscape:cx="44.515307"
     inkscape:cy="26.745635"
     inkscape:window-width="1920"
     inkscape:window-height="1009"
     inkscape:window-x="-8"
     inkscape:window-y="-8"
     inkscape:window-maximized="1"
     inkscape:current-layer="aws"><inkscape:page
       x="0"
       y="0"
       width="256"
       height="255.81596"
       id="page2"
       margin="0"
       bleed="0" /></sodipodi:namedview><g
     id="g3"
     transform="translate(-0.6894576,-0.49590021)"><svg
       width="256"
       height="256"
       fill="none"
       viewBox="0 0 256 256"
       id="aws"
       version="1.1"><style
         id="style1">
#aws {
    rect {fill: #242938}
    path.letters {fill: #fff}

    @media (prefers-color-scheme: light) {
        rect {fill: #F4F2ED}
        path.letters {fill: #252F3E}
    }
}
</style><g
         transform="matrix(0.71333333,0,0,-0.71333333,0,14266.823)"
         fill="#000000"
         stroke="none"
         id="g1" /><g
         id="g29"><rect
           width="256"
           height="256"
           fill="#242938"
           rx="60"
           id="rect1"
           x="0.6894576"
           y="0.40388021" /><path
           d="m 135.79736,32.834506 c 0.10724,0.03916 0.21438,0.07742 0.32482,0.117824 0.77511,0.28824 1.53046,0.62329 2.28465,0.961988 0.10314,0.04627 0.20619,0.09184 0.31245,0.139181 1.46478,0.667163 2.88908,1.428566 4.29184,2.216845 0.57247,0.321612 1.14993,0.633613 1.72811,0.94508 0.6458,0.34822 1.28582,0.701869 1.91659,1.076608 0.24703,0.143275 0.49932,0.270443 0.75606,0.395119 0.33416,0.166412 0.65746,0.353025 0.98272,0.53599 0.42422,0.236804 0.84942,0.471561 1.27666,0.702937 0.32864,0.178515 0.65391,0.361835 0.97747,0.549338 0.58361,0.337987 1.17575,0.647496 1.78062,0.945525 0.37198,0.185368 0.73301,0.386042 1.09414,0.59161 0.23983,0.135177 0.47983,0.269997 0.71984,0.404907 0.12592,0.07119 0.25193,0.141762 0.37786,0.212599 0.53608,0.3015 1.07367,0.599885 1.61366,0.894177 0.32526,0.177358 0.65043,0.354806 0.97543,0.53252 0.71308,0.389779 1.42643,0.778934 2.14262,1.163107 0.15369,0.08276 0.15369,0.08276 0.31049,0.16659 0.19729,0.105721 0.39468,0.211264 0.59215,0.316629 0.56562,0.303191 1.12279,0.617683 1.67498,0.944724 0.19079,0.110348 0.38132,0.21242 0.57977,0.307996 0.39432,0.191063 0.77137,0.411671 1.15083,0.630232 0.39405,0.226748 0.79112,0.446732 1.19114,0.662891 0.21945,0.11987 0.43783,0.241075 0.65586,0.363437 0.73461,0.412027 1.47208,0.809548 2.2277,1.181706 0.5666,0.282189 1.10597,0.597928 1.64036,0.936359 0.22728,0.139003 0.46453,0.252822 0.70365,0.370112 0.51152,0.271154 1.01512,0.553521 1.51284,0.849148 0.49666,0.292245 1.00657,0.549695 1.52299,0.804208 0.57309,0.285571 1.11879,0.603534 1.65931,0.945881 0.22729,0.139003 0.46453,0.252822 0.70374,0.370112 0.603,0.319743 1.19452,0.656573 1.78026,1.007018 0.31218,0.175578 0.63041,0.333892 0.95122,0.49274 0.38435,0.193733 0.76096,0.400992 1.13765,0.609141 0.0783,0.0436 0.15734,0.08632 0.23841,0.13135 0.46613,0.257806 0.92586,0.523532 1.38016,0.801805 0.23119,0.136957 0.46924,0.255047 0.71067,0.372604 0.57791,0.287351 1.13757,0.607984 1.69172,0.938139 0.40063,0.235647 0.80839,0.448779 1.22602,0.65239 0.89364,0.436766 1.75205,0.935647 2.61525,1.429011 0.73017,0.416476 0.73017,0.416476 1.47885,0.797978 0.43837,0.216425 0.85707,0.460527 1.27799,0.708899 0.53252,0.311556 1.07634,0.601755 1.62248,0.888571 0.68096,0.357921 1.35319,0.722515 2.01501,1.114964 0.24793,0.143452 0.50049,0.26973 0.7582,0.394317 0.34449,0.177358 0.67518,0.378922 1.008,0.577104 0.26341,0.151373 0.53119,0.287084 0.8035,0.421459 0.60335,0.319121 1.19461,0.656662 1.78034,1.007018 0.31129,0.175133 0.62872,0.333092 0.94882,0.491584 0.4001,0.201564 0.79228,0.417277 1.185,0.632812 0.0854,0.04628 0.17068,0.09335 0.25861,0.141495 0.73862,0.404729 1.47519,0.813018 2.21088,1.223176 0.7234,0.403305 0.7234,0.403305 1.45028,0.80047 0.17816,0.09736 0.35623,0.194889 0.5343,0.292423 0.0561,0.03115 0.11221,0.0614 0.17006,0.09291 0.75384,0.412917 1.47315,0.84105 2.16941,1.346784 0.2684,0.182342 0.53911,0.361035 0.80981,0.539906 0.27062,0.178871 0.54071,0.358632 0.80982,0.539906 0.0632,0.04182 0.12601,0.08454 0.19088,0.127523 0.14969,0.102784 0.29483,0.211976 0.43899,0.322324 0,0.05962 0,0.118803 0,0.180028 0.0507,0.0089 0.1011,0.01424 0.15325,0.02136 0.27516,0.09077 0.42332,0.241431 0.63405,0.439435 0.0783,0.07297 0.15752,0.145856 0.23868,0.221053 0.11568,0.107679 0.11568,0.107679 0.23378,0.217582 0.12876,0.114976 0.25807,0.229329 0.38799,0.343059 0.0579,0.05072 0.11596,0.101538 0.17576,0.153953 0.1253,0.1067 0.25531,0.207882 0.38666,0.307196 0.25256,0.213755 0.45795,0.448691 0.67233,0.700089 0.19507,0.226481 0.39663,0.446199 0.59864,0.66645 0.28139,0.312802 0.52771,0.618841 0.74788,0.978541 0.0481,0.07119 0.0958,0.141762 0.14523,0.214734 0.39609,0.594635 0.68024,1.188648 0.93458,1.854831 0.0427,0.103051 0.0845,0.206191 0.12868,0.312446 0.77689,1.918103 1.09325,3.93997 1.31101,5.98613 0.009,0.06674 0.0151,0.134287 0.0222,0.203433 0.0703,0.688787 0.0801,1.371345 0.0801,2.063336 1.7e-4,0.127256 5.3e-4,0.254602 7.1e-4,0.381858 7.1e-4,0.348932 7.1e-4,0.697775 7.1e-4,1.046707 0,0.379901 6.2e-4,0.759891 0,1.139881 0,0.753216 0,1.506433 0,2.259649 4.4e-4,0.902543 0,1.805085 0,2.707539 0,2.285456 0,4.570912 0.009,6.856373 3.5e-4,0.61954 7.1e-4,1.2391 0,1.85865 0,3.84973 0,7.69946 0.009,11.54919 1.8e-4,0.89169 5.3e-4,1.78329 0,2.67489 0,0.11079 0,0.22159 0,0.33567 0,3.58677 0,7.17353 0.009,10.76039 0,3.69106 0.009,7.38212 0.009,11.07319 0,0.52237 0,1.04475 1.7e-4,1.56712 0,0.15413 0,0.15413 0,0.31147 3.6e-4,1.6481 0,3.29612 0.009,4.94423 0,1.65994 0,3.31988 0,4.97982 -5.3e-4,0.9837 0,1.96732 0,2.95102 0,0.66013 0,1.32017 0,1.98031 -7.1e-4,0.3742 0,0.74832 0,1.12243 0.0205,4.10576 -0.25122,9.81656 -3.33145,12.93203 -0.0774,0.0765 -0.15475,0.15306 -0.23449,0.232 -0.15057,0.16623 -0.30052,0.33309 -0.44985,0.50048 -0.66289,0.73257 -1.38442,1.40632 -2.15953,2.01893 -0.0703,0.0596 -0.14061,0.11925 -0.21304,0.18065 -0.62329,0.5262 -1.27835,0.97729 -1.96153,1.42118 -0.15725,0.10278 -0.31334,0.20699 -0.46899,0.312 -0.76095,0.5133 -0.76095,0.5133 -1.09627,0.70125 -0.26359,0.14852 -0.51214,0.30639 -0.76479,0.47236 -0.48357,0.3112 -0.98254,0.5634 -1.50055,0.81088 -0.29456,0.15137 -0.55806,0.32695 -0.83331,0.51072 -0.20272,0.10625 -0.40713,0.20921 -0.61306,0.30933 -0.69359,0.34101 -1.35969,0.70667 -2.01252,1.12012 -0.22728,0.13901 -0.46453,0.25291 -0.70374,0.37012 -0.603,0.31974 -1.19452,0.65657 -1.78026,1.00701 -0.23475,0.13206 -0.46978,0.25425 -0.71103,0.37367 -0.49461,0.24491 -0.97854,0.50743 -1.4622,0.77324 -0.16579,0.0908 -0.33158,0.18163 -0.49737,0.2724 -0.081,0.0445 -0.16294,0.0894 -0.24695,0.13545 -0.33906,0.1859 -0.67864,0.371 -1.01814,0.5561 -0.53697,0.29278 -1.0678,0.58538 -1.5795,0.92105 -0.17291,0.10021 -0.17291,0.10021 -0.38132,0.18128 -0.2393,0.098 -0.45412,0.2117 -0.67802,0.34065 -0.0828,0.0472 -0.16632,0.0952 -0.25202,0.14426 -0.0881,0.0507 -0.17656,0.10153 -0.26751,0.15386 -0.66725,0.38088 -1.33708,0.75357 -2.01893,1.10784 -0.60309,0.31361 -1.19568,0.64038 -1.78408,0.98068 -0.32713,0.18822 -0.65791,0.3686 -0.98984,0.54827 -0.36433,0.19872 -0.72688,0.40064 -1.0896,0.60247 -1.45562,0.80946 -1.45562,0.80946 -2.16159,1.18028 -0.67997,0.3573 -1.35319,0.71869 -2.01225,1.11354 -0.25362,0.1463 -0.51259,0.27596 -0.77502,0.40562 -0.48713,0.25798 -0.96795,0.52638 -1.44494,0.80278 -0.58262,0.33728 -1.17352,0.64643 -1.7775,0.94375 -0.3726,0.18581 -0.73462,0.38737 -1.09663,0.59294 -0.13687,0.0747 -0.27365,0.14995 -0.41051,0.22497 -0.26404,0.14621 -0.52131,0.29936 -0.77609,0.46115 -0.28655,0.18145 -0.57817,0.33416 -0.88296,0.48357 -0.61813,0.32776 -1.2238,0.6742 -1.82422,1.03345 -0.24535,0.13634 -0.24535,0.13634 -0.45875,0.2199 -0.23556,0.096 -0.44655,0.20797 -0.66672,0.33505 -0.0819,0.0472 -0.16445,0.0942 -0.24926,0.14283 -0.0872,0.0507 -0.17504,0.10082 -0.26528,0.15279 -0.7816,0.44656 -1.57051,0.87407 -2.37009,1.28752 -0.49968,0.25932 -0.98539,0.5327 -1.46843,0.82174 -0.39886,0.22764 -0.81133,0.42573 -1.22496,0.62489 -0.29269,0.15209 -0.55761,0.32553 -0.83019,0.51072 -0.1431,0.0828 -0.28744,0.16356 -0.43303,0.24187 -0.0854,0.0463 -0.17033,0.0918 -0.25798,0.13919 -0.22141,0.11773 -0.44309,0.23484 -0.66503,0.35142 -0.13099,0.0685 -0.26199,0.13785 -0.39298,0.20672 -0.0659,0.0347 -0.13135,0.0694 -0.19907,0.10475 -0.48135,0.2546 -0.95131,0.52406 -1.41985,0.80171 -0.2546,0.14746 -0.51365,0.27934 -0.77822,0.40776 -0.33416,0.16641 -0.65746,0.35302 -0.98272,0.53599 -0.42422,0.2368 -0.84942,0.47156 -1.27657,0.70302 -0.32873,0.17852 -0.65399,0.36175 -0.97756,0.54925 -0.5828,0.33754 -1.17397,0.64679 -1.77813,0.94419 -0.3726,0.18582 -0.73479,0.38711 -1.09663,0.59295 -0.13491,0.0747 -0.26991,0.15013 -0.4049,0.22497 -0.20041,0.11123 -0.40082,0.22265 -0.60105,0.33424 -0.37011,0.20611 -0.74138,0.40945 -1.11425,0.61048 -0.28432,0.1544 -0.56126,0.31271 -0.83233,0.48927 -0.29776,0.19008 -0.6046,0.34591 -0.9223,0.50057 -0.77875,0.37946 -1.52663,0.81373 -2.2786,1.2432 -0.6701,0.38195 -1.345,0.75135 -2.03477,1.09628 -0.75624,0.40606 -1.50759,0.82174 -2.25235,1.24845 -3.89752,2.23019 -3.89752,2.23019 -5.28773,2.72756 -0.53172,0.19604 -1.05988,0.41176 -1.56481,0.66921 -0.20557,0.10056 -0.39316,0.17424 -0.6095,0.24463 -0.31494,0.10323 -0.62881,0.20922 -0.94232,0.31707 -3.91861,1.32534 -7.57862,1.3499 -11.47845,-0.0783 -0.0978,-0.0356 -0.0978,-0.0356 -0.19765,-0.0721 -0.47806,-0.1762 -0.95069,-0.36442 -1.42198,-0.55788 -0.0756,-0.0311 -0.15182,-0.0623 -0.23004,-0.0939 -0.96786,-0.39752 -1.90458,-0.82743 -2.82332,-1.32818 -0.42244,-0.23022 -0.85262,-0.44371 -1.28458,-0.65524 -0.77279,-0.38115 -1.52174,-0.80643 -2.26979,-1.2335 -0.76381,-0.43605 -1.52877,-0.85707 -2.31963,-1.24168 -0.27044,-0.13651 -0.51935,-0.29154 -0.77226,-0.45759 -0.37679,-0.22577 -0.77716,-0.40954 -1.17254,-0.60033 -0.23947,-0.1245 -0.43374,-0.25363 -0.64527,-0.41826 -0.16766,-0.0836 -0.33541,-0.16739 -0.50404,-0.24917 -0.34128,-0.17514 -0.66806,-0.37421 -0.99688,-0.57159 -0.31529,-0.17843 -0.63663,-0.33879 -0.96136,-0.4995 -0.38417,-0.19347 -0.76052,-0.40064 -1.13695,-0.6087 -0.118,-0.065 -0.118,-0.065 -0.2384,-0.13135 -0.46622,-0.2578 -0.92586,-0.52353 -1.38025,-0.8018 -0.23119,-0.13696 -0.46915,-0.25505 -0.71067,-0.37261 -0.57782,-0.28735 -1.13748,-0.60798 -1.69172,-0.93814 -0.40063,-0.23564 -0.80839,-0.44878 -1.22593,-0.65239 -0.89444,-0.43712 -1.753647,-0.93644 -2.617476,-1.43025 -0.590008,-0.33594 -1.1858,-0.66129 -1.782037,-0.98593 -0.242588,-0.13215 -0.48491,-0.26475 -0.727231,-0.39743 -0.772349,-0.42244 -1.545233,-0.84328 -2.32479,-1.25237 -0.527981,-0.27702 -1.044572,-0.569 -1.557781,-0.87308 -0.250864,-0.14533 -0.506,-0.27525 -0.766564,-0.40206 -0.583156,-0.28993 -1.147712,-0.61448 -1.707908,-0.94624 -0.450381,-0.26519 -0.910641,-0.4995 -1.379888,-0.72928 -0.20717,-0.10599 -0.399479,-0.21776 -0.594012,-0.34484 -0.37118,-0.24098 -0.765319,-0.43222 -1.161683,-0.62729 -0.434719,-0.21429 -0.857694,-0.44389 -1.279065,-0.683 -0.136778,-0.0748 -0.273646,-0.15004 -0.410513,-0.22497 -0.264035,-0.1463 -0.521307,-0.29937 -0.776087,-0.46115 -0.286461,-0.18145 -0.578083,-0.33425 -0.882876,-0.48367 -0.603089,-0.31974 -1.19461,-0.65657 -1.780346,-1.00701 -0.236359,-0.13295 -0.473074,-0.25585 -0.715929,-0.37608 -0.466845,-0.23111 -0.923099,-0.47877 -1.378553,-0.73141 -0.07475,-0.0418 -0.149949,-0.0828 -0.227193,-0.12548 -0.366908,-0.20272 -0.733283,-0.40624 -1.099657,-0.60985 -0.77226,-0.4292 -1.549682,-0.84808 -2.331731,-1.25913 -0.631656,-0.33282 -1.254234,-0.68104 -1.874854,-1.03398 -0.08632,-0.0489 -0.173354,-0.0986 -0.2627,-0.14933 -0.17727,-0.10091 -0.354361,-0.20183 -0.531452,-0.30301 -0.486334,-0.27614 -0.976138,-0.5375 -1.477867,-0.78436 -0.250419,-0.12566 -0.49105,-0.26448 -0.731414,-0.4082 -0.781604,-0.46676 -1.588037,-0.88937 -2.390198,-1.31929 -0.828235,-0.44415 -1.651843,-0.89231 -2.464505,-1.36431 -0.410603,-0.22951 -0.831795,-0.43472 -1.25548,-0.63869 -0.290376,-0.15093 -0.553343,-0.32383 -0.823874,-0.50751 -0.143097,-0.0828 -0.28744,-0.16348 -0.433029,-0.24179 -0.08454,-0.0454 -0.169883,-0.0917 -0.25736,-0.13891 -0.223634,-0.11889 -0.447712,-0.23725 -0.671968,-0.35499 -0.632101,-0.33202 -1.257259,-0.66591 -1.865688,-1.04003 -0.238228,-0.14185 -0.483308,-0.26377 -0.732571,-0.38488 -0.262166,-0.13055 -0.516412,-0.27445 -0.771815,-0.4179 -0.230397,-0.12868 -0.462395,-0.25416 -0.694572,-0.37964 -0.356674,-0.19382 -0.707742,-0.3952 -1.057208,-0.60175 -0.397877,-0.23405 -0.800737,-0.44495 -1.215433,-0.64705 -0.229774,-0.11783 -0.448424,-0.24731 -0.668587,-0.38204 -0.283524,-0.17344 -0.567137,-0.33264 -0.866056,-0.47806 -0.92924,-0.45509 -1.829024,-0.9756 -2.695525,-1.54051 -0.210463,-0.13634 -0.424218,-0.26528 -0.639308,-0.39405 -0.09842,-0.065 -0.196759,-0.12993 -0.298119,-0.19685 0,-0.0596 0,-0.11871 0,-0.17994 -0.06407,-0.0222 -0.128235,-0.0454 -0.194355,-0.0685 -0.281656,-0.12325 -0.499238,-0.27587 -0.744763,-0.46044 -0.273112,-0.2037 -0.54391,-0.40357 -0.832329,-0.58493 -0.06852,-0.0481 -0.137312,-0.0965 -0.20806,-0.14621 0,-0.0596 0,-0.11872 0,-0.17994 -0.0614,-0.0178 -0.122095,-0.0356 -0.184922,-0.0534 -0.365039,-0.1738 -0.616972,-0.42653 -0.906102,-0.70543 -0.05873,-0.0561 -0.117646,-0.11186 -0.178248,-0.16952 -0.177537,-0.16953 -0.354094,-0.34013 -0.530384,-0.51099 -0.05251,-0.0507 -0.105009,-0.101 -0.159027,-0.15306 -0.607093,-0.58565 -0.607093,-0.58565 -0.830727,-0.83669 0,-0.0596 0,-0.1188 0,-0.17994 -0.05962,0 -0.118802,0 -0.179939,0 -0.02403,-0.0721 -0.04805,-0.14479 -0.07297,-0.21936 -0.0356,-0.0765 -0.0703,-0.15218 -0.106878,-0.23058 -0.08908,-0.0294 -0.178159,-0.0596 -0.269908,-0.09 -0.171129,-0.2425 -0.171129,-0.2425 -0.354272,-0.55111 -0.03204,-0.0534 -0.06407,-0.10715 -0.097,-0.16232 -0.09024,-0.15164 -0.179405,-0.304 -0.268574,-0.45635 -0.03649,-0.0614 -0.07297,-0.12272 -0.11106,-0.1859 -0.488025,-0.83001 -0.860094,-1.68521 -1.148691,-2.60342 -0.03204,-0.10163 -0.03204,-0.10163 -0.06496,-0.20521 -0.343415,-1.1139 -0.554767,-2.24559 -0.713082,-3.39855 -0.0098,-0.0721 -0.01958,-0.14408 -0.03026,-0.21821 -0.206459,-1.53838 -0.246326,-3.05771 -0.239474,-4.60784 0,-0.38622 -3.56e-4,-0.77235 0,-1.15857 0,-0.67303 0,-1.34598 -4.45e-4,-2.01902 0,-1.00087 8.9e-4,-2.00175 -5.34e-4,-3.00254 0,-1.78871 0,-3.57742 -8.01e-4,-5.36613 0,-1.56535 0,-3.13069 0,-4.69595 0,-0.10429 0,-0.2085 -1.78e-4,-0.31582 -1.78e-4,-0.42315 -2.67e-4,-0.84622 -4.45e-4,-1.26937 0,-3.96159 -1.78e-4,-7.9231 0,-11.88469 0,-3.51255 0,-7.02509 -2.67e-4,-10.53773 0,-3.95484 0,-7.90976 0,-11.86458 1.78e-4,-0.42227 2.67e-4,-0.84461 4.45e-4,-1.26687 0,-0.10395 0,-0.20789 1.78e-4,-0.31503 5.34e-4,-1.56366 0,-3.1273 0,-4.69096 0,-1.779544 0,-3.559 0,-5.338545 0,-0.993491 0,-1.987071 -2.67e-4,-2.980561 0,-0.666273 -3.56e-4,-1.332546 0,-1.998818 0,-0.377854 0,-0.755619 -1.78e-4,-1.133473 -0.0089,-1.531706 0.05428,-3.027015 0.267951,-4.545462 0.0089,-0.06674 0.01869,-0.13313 0.02848,-0.201741 0.245703,-1.713069 0.656039,-3.408429 1.382113,-4.985075 0.02492,-0.0534 0.04894,-0.107412 0.07475,-0.162764 0.330511,-0.714772 0.707386,-1.370188 1.185266,-1.996771 0.0356,-0.04716 0.0703,-0.09451 0.106788,-0.143275 0.861429,-1.15403 1.821549,-2.113971 2.95253,-3.006013 0.108213,-0.0881 0.216158,-0.17629 0.324104,-0.264658 0.678019,-0.553254 1.36645,-1.064327 2.105339,-1.53491 0.0978,-0.06318 0.195601,-0.1269 0.296339,-0.192308 0.264035,-0.171218 0.529049,-0.340834 0.794508,-0.509827 0.115154,-0.07386 0.230041,-0.147102 0.344838,-0.221053 0.730346,-0.470493 1.459891,-0.903521 2.245856,-1.275057 0.278184,-0.134554 0.278184,-0.134554 0.521574,-0.30506 0.41345,-0.274002 0.848525,-0.502263 1.285736,-0.736041 0.09193,-0.04895 0.183854,-0.09869 0.27854,-0.149593 0.192131,-0.10314 0.384173,-0.206192 0.576303,-0.309243 0.828236,-0.444063 1.651933,-0.892219 2.464595,-1.364314 0.410513,-0.229507 0.831706,-0.43463 1.255479,-0.638597 0.290287,-0.150928 0.552187,-0.325705 0.823875,-0.507513 0.170951,-0.08926 0.343415,-0.17549 0.517391,-0.258696 0.419324,-0.205835 0.816756,-0.430091 1.214366,-0.674548 0.355428,-0.210196 0.720735,-0.400458 1.086041,-0.592856 0.459014,-0.242766 0.906636,-0.502174 1.353636,-0.766298 0.257094,-0.148347 0.51837,-0.281655 0.785253,-0.411314 0.26003,-0.129482 0.51223,-0.272489 0.765497,-0.414696 0.230397,-0.128681 0.462395,-0.254158 0.694572,-0.379634 0.349466,-0.189728 0.69288,-0.387287 1.034782,-0.590453 0.36851,-0.216781 0.740313,-0.414696 1.124752,-0.601754 0.770214,-0.378299 1.511238,-0.806611 2.256179,-1.231986 0.67001,-0.381948 1.344914,-0.751348 2.03468,-1.096275 0.114531,-0.06229 0.228706,-0.1261 0.342703,-0.189817 0.352937,-0.196669 0.706319,-0.392271 1.060145,-0.587338 0.05251,-0.02937 0.105632,-0.05784 0.160094,-0.0881 0.225146,-0.124141 0.450293,-0.248194 0.675439,-0.372336 0.834821,-0.459904 0.834821,-0.459904 1.667328,-0.923901 0.698843,-0.391647 1.399377,-0.769145 2.121624,-1.116298 0.28566,-0.148792 0.544712,-0.320544 0.811238,-0.501195 0.143008,-0.08276 0.287351,-0.163475 0.433029,-0.241787 0.127701,-0.06852 0.127701,-0.06852 0.257983,-0.139181 0.22132,-0.117735 0.442996,-0.234935 0.664938,-0.351513 0.130994,-0.06852 0.261988,-0.137757 0.392982,-0.206725 0.06585,-0.03471 0.132152,-0.06941 0.200229,-0.105276 0.381325,-0.201653 0.756153,-0.410781 1.126977,-0.631388 0.485444,-0.288597 0.983969,-0.537859 1.492464,-0.782762 0.292423,-0.151906 0.558149,-0.325082 0.830193,-0.510717 0.179138,-0.09166 0.359255,-0.181362 0.539906,-0.269908 0.486868,-0.258518 0.967951,-0.526468 1.44494,-0.802873 0.582889,-0.337452 1.173252,-0.646962 1.780257,-0.939118 0.287173,-0.142652 0.287173,-0.142652 0.551119,-0.32615 0.388355,-0.258251 0.803763,-0.448602 1.223176,-0.650967 0.299631,-0.155288 0.569183,-0.332468 0.849148,-0.520238 0.174688,-0.09104 0.350979,-0.179228 0.528693,-0.264303 0.310666,-0.152262 0.610386,-0.305237 0.899784,-0.494876 0.371179,-0.240987 0.765319,-0.432228 1.161683,-0.627295 0.434719,-0.214289 0.857691,-0.443885 1.279062,-0.683003 0.136778,-0.07475 0.273646,-0.150038 0.410513,-0.224968 0.264035,-0.1463 0.521307,-0.299364 0.776087,-0.461149 0.286461,-0.181452 0.578083,-0.334249 0.882876,-0.483664 0.507867,-0.269286 1.007817,-0.549339 1.501537,-0.843542 0.40063,-0.235647 0.80839,-0.448868 1.22602,-0.65239 0.72545,-0.354182 1.42519,-0.750635 2.12519,-1.152339 0.47574,-0.272578 0.95371,-0.529405 1.44591,-0.771014 0.13376,-0.07208 0.26698,-0.144788 0.39931,-0.219273 0.25976,-0.145945 0.51988,-0.291177 0.78062,-0.43552 0.30284,-0.168103 0.60434,-0.338253 0.90503,-0.510005 0.94081,-0.536703 1.88643,-1.058543 2.84842,-1.556268 0.51205,-0.265637 1.01102,-0.545067 1.50652,-0.840516 0.25024,-0.146033 0.50573,-0.275248 0.76621,-0.401703 0.26012,-0.129571 0.51231,-0.27249 0.76558,-0.414786 0.2304,-0.12868 0.46231,-0.254157 0.69448,-0.379633 0.34956,-0.189728 0.69297,-0.387287 1.03479,-0.590453 0.49754,-0.29269 1.00826,-0.550763 1.52583,-0.805276 0.23227,-0.116044 0.45884,-0.236003 0.68434,-0.364505 0.55156,-0.312357 1.12297,-0.586982 1.69091,-0.868015 0.1374,-0.06852 0.27391,-0.138914 0.41024,-0.209572 0.7712,-0.399835 1.58341,-0.709077 2.39786,-1.008798 0.23618,-0.08961 0.45376,-0.184032 0.68051,-0.292423 0.56393,-0.250686 1.14887,-0.419768 1.74412,-0.577193 0.16722,-0.04449 0.33407,-0.08997 0.50066,-0.136689 3.48247,-0.957094 7.00499,-0.555124 10.35806,0.70258 z m -10.97619,34.663882 c -0.40268,0.235291 -0.82067,0.435253 -1.2407,0.637618 -0.29269,0.151996 -0.55753,0.325438 -0.8302,0.510628 -0.14309,0.08276 -0.28744,0.163565 -0.43302,0.241876 -0.12771,0.06852 -0.12771,0.06852 -0.25799,0.139182 -0.22141,0.117734 -0.44308,0.234846 -0.66502,0.351512 -0.131,0.06852 -0.26199,0.137758 -0.39299,0.206636 -0.0658,0.03471 -0.13161,0.06941 -0.19943,0.10492 -0.47725,0.252467 -0.94356,0.520328 -1.40792,0.795932 -0.30141,0.173176 -0.61092,0.324816 -0.92336,0.47699 -0.31174,0.159916 -0.60754,0.343503 -0.90646,0.526201 -0.24205,0.143631 -0.48945,0.268396 -0.74236,0.39147 -0.67944,0.337897 -1.33263,0.722959 -1.98476,1.110068 -0.27569,0.154666 -0.55583,0.28655 -0.84292,0.418612 -0.57754,0.287618 -1.0112,0.607005 -1.22246,1.236168 -0.0534,0.251666 -0.0828,0.492296 -0.0991,0.749034 -0.009,0.06318 -0.0116,0.126367 -0.0178,0.191508 0,0.504666 0.28708,0.837223 0.62427,1.189092 0.54489,0.478147 1.23091,0.786321 1.872,1.114073 0.28655,0.148704 0.56794,0.305861 0.84915,0.464442 0.23333,0.128592 0.47112,0.246326 0.71104,0.362014 0.21437,0.110348 0.42234,0.230753 0.63121,0.350979 0.38942,0.220341 0.78498,0.42938 1.17894,0.641266 0.9344,0.504132 1.86062,1.021612 2.78345,1.546568 0.80412,0.460348 0.80412,0.460348 1.62559,0.888571 0.49693,0.245525 0.97756,0.51837 1.45696,0.796465 0.63833,0.370023 1.28315,0.713883 1.94506,1.040034 0.49177,0.244991 0.96786,0.50778 1.42884,0.80661 0.42893,0.273646 0.88714,0.488292 1.34473,0.708988 0.29732,0.154132 0.565,0.330778 0.84292,0.517036 0.17469,0.09104 0.35089,0.179227 0.52861,0.264302 0.31066,0.152263 0.61038,0.305237 0.89978,0.494876 0.29563,0.19133 0.59997,0.34653 0.91669,0.500483 0.77885,0.379456 1.52664,0.813819 2.27869,1.243288 0.4947,0.282011 0.99421,0.554856 1.49487,0.826278 0.44148,0.241965 0.87771,0.490338 1.3103,0.747965 0.40446,0.237338 0.81595,0.452607 1.23723,0.657997 0.69813,0.341724 1.37197,0.721714 2.04687,1.106687 0.8455,0.481973 1.69901,0.948373 2.55457,1.412014 0.23662,0.128413 0.47289,0.257538 0.70916,0.386664 0.35935,0.196135 0.71958,0.39049 1.08044,0.583867 0.1463,0.07831 0.1463,0.07831 0.29545,0.158314 0.19845,0.106255 0.3969,0.212421 0.59543,0.318409 0.58325,0.312979 1.15848,0.636193 1.72793,0.973646 0.194,0.112217 0.38827,0.215535 0.58992,0.31298 1.7363,0.853597 1.7363,0.853597 2.1033,1.737719 0.12298,0.72554 0.11764,1.45642 -0.21367,2.131413 -0.0891,0.02937 -0.17816,0.05962 -0.27,0.09006 0,0.05962 0,0.118717 0,0.179937 -0.0596,0.0222 -0.11853,0.0436 -0.17958,0.0667 -0.34306,0.14417 -0.66761,0.3153 -0.99581,0.49034 -0.0676,0.0365 -0.13588,0.0721 -0.20583,0.10928 -0.47752,0.25505 -0.94455,0.52478 -1.40988,0.80145 -0.40357,0.22897 -0.8196,0.42991 -1.23759,0.63121 -0.29269,0.15209 -0.55762,0.32552 -0.83019,0.51071 -0.1431,0.0828 -0.28744,0.16357 -0.43303,0.24188 -0.0854,0.0463 -0.17033,0.0918 -0.25799,0.13918 -0.2214,0.11774 -0.44308,0.23485 -0.66502,0.35143 -0.131,0.0685 -0.26199,0.13775 -0.39299,0.20672 -0.0658,0.0347 -0.13108,0.0694 -0.19862,0.10448 -0.48028,0.25406 -0.95033,0.52095 -1.41647,0.8002 -0.25353,0.1463 -0.51267,0.27587 -0.77501,0.40562 -0.1261,0.0685 -0.25176,0.13776 -0.37679,0.20806 -0.29874,0.1673 -0.59864,0.33202 -0.89978,0.49496 -0.32865,0.17852 -0.654,0.36175 -0.97757,0.54934 -0.58244,0.33728 -1.17334,0.64625 -1.77705,0.94375 -0.4737,0.236 -0.93413,0.48312 -1.37321,0.77884 -0.25229,0.16641 -0.50271,0.29509 -0.77395,0.426 -0.25692,0.13233 -0.50236,0.28032 -0.75011,0.42884 -0.41478,0.24473 -0.80474,0.42502 -1.25975,0.57924 -0.099,0.0436 -0.19809,0.0872 -0.30016,0.13251 -1.90476,0.79397 -4.26372,0.56758 -6.14462,-0.17184 -0.85485,-0.38827 -1.66084,-0.87433 -2.47385,-1.34207 -0.38587,-0.22061 -0.77493,-0.43525 -1.1648,-0.64874 -0.073,-0.0401 -0.14639,-0.0801 -0.22177,-0.12165 -0.14879,-0.081 -0.29758,-0.16276 -0.44637,-0.2441 -0.22995,-0.12574 -0.45982,-0.25166 -0.68959,-0.37767 -0.72154,-0.39494 -1.44396,-0.78793 -2.16977,-1.17504 -0.0561,-0.0303 -0.11177,-0.0596 -0.16935,-0.0903 -0.27382,-0.14621 -0.54774,-0.29206 -0.822,-0.43747 -0.53688,-0.28611 -1.0654,-0.57978 -1.5835,-0.89872 -0.23788,-0.14185 -0.48296,-0.26368 -0.73186,-0.38462 -0.26252,-0.13072 -0.51695,-0.2748 -0.77262,-0.41834 -0.22648,-0.12646 -0.45438,-0.25015 -0.68256,-0.37358 -0.32864,-0.17852 -0.65399,-0.36184 -0.97756,-0.54934 -0.58315,-0.33781 -1.1737,-0.64732 -1.78088,-0.93956 -0.28406,-0.14764 -0.28406,-0.14764 -0.55112,-0.32615 -0.29135,-0.19373 -0.5876,-0.34431 -0.90263,-0.4963 -0.41407,-0.19979 -0.78837,-0.41906 -1.16978,-0.674908 -0.17469,-0.09104 -0.35089,-0.179227 -0.5286,-0.264302 -0.3107,-0.152266 -0.61042,-0.30524 -0.89982,-0.494879 -0.37118,-0.240987 -0.76532,-0.432228 -1.16168,-0.627295 -0.43472,-0.214289 -0.85769,-0.443885 -1.27906,-0.683003 -0.13678,-0.07475 -0.27365,-0.150038 -0.41052,-0.224968 -0.26403,-0.146301 -0.5213,-0.299364 -0.77608,-0.461149 -0.28655,-0.181452 -0.57817,-0.334249 -0.88297,-0.483664 -0.603,-0.319743 -1.19452,-0.656573 -1.78025,-1.007018 -0.23636,-0.132952 -0.47308,-0.255848 -0.71593,-0.376074 -0.466847,-0.231197 -0.923097,-0.478769 -1.378553,-0.731414 -0.07475,-0.04183 -0.14995,-0.08276 -0.227282,-0.125476 -0.289665,-0.160094 -0.579062,-0.320544 -0.868282,-0.481528 -0.448868,-0.249975 -0.899161,-0.497013 -1.350343,-0.742716 -0.231909,-0.126277 -0.463641,-0.252911 -0.695283,-0.379634 -1.014048,-0.554144 -2.03041,-1.10375 -3.049085,-1.649262 -0.514366,-0.276316 -1.022858,-0.559128 -1.525566,-0.85609 -1.924599,-1.106598 -4.177752,-1.344292 -6.315842,-0.777511 -0.90548,0.262523 -1.743593,0.667608 -2.524664,1.193631 -0.198271,0.130816 -0.378832,0.234846 -0.590541,0.337453 -0.309776,0.150216 -0.603979,0.318675 -0.899784,0.494876 -0.397254,0.234757 -0.80047,0.449581 -1.214721,0.65239 -0.88955,0.439881 -1.656738,0.932355 -2.418231,1.568993 -0.05784,0.04539 -0.115065,0.09068 -0.174332,0.137491 -0.374028,0.301411 -0.658442,0.640287 -0.945525,1.024904 -0.139894,0.187326 -0.139894,0.187326 -0.325439,0.400992 -1.454551,1.970697 -1.379621,4.290681 -1.344114,6.624821 0.324282,0.18385 0.648564,0.36753 0.972934,0.55111 0.135622,0.0765 0.135622,0.0765 0.274002,0.15538 1.16026,0.66004 1.16026,0.66004 2.348106,1.2682 0.212065,0.10928 0.417722,0.22862 0.624447,0.3476 0.389512,0.22025 0.785253,0.42947 1.179392,0.64144 0.934401,0.50414 1.860527,1.02162 2.783359,1.54657 0.596326,0.3387 1.191139,0.67455 1.806331,0.97801 0.319832,0.16143 0.631566,0.33727 0.944012,0.51222 0.10492,0.0587 0.10492,0.0587 0.211887,0.118 0.344126,0.19205 0.687633,0.38507 1.030336,0.57969 0.122006,0.0694 0.244101,0.13856 0.366196,0.20779 0.05873,0.0338 0.118001,0.0667 0.178693,0.10136 0.360768,0.20308 0.725629,0.39218 1.097966,0.57346 0.296783,0.14479 0.567493,0.29189 0.83224,0.48927 0.297584,0.21589 0.577905,0.33781 0.916692,0.47806 0.19925,0.10492 0.39494,0.21518 0.590897,0.32615 0.227104,0.12832 0.456166,0.25273 0.685673,0.37678 0.328642,0.17852 0.653992,0.36175 0.977562,0.54934 0.582799,0.33754 1.173963,0.64678 1.778121,0.9441 0.372603,0.1859 0.734795,0.3872 1.096631,0.59295 0.134909,0.0747 0.269908,0.15012 0.404907,0.22497 0.100025,0.0561 0.100025,0.0561 0.202097,0.11248 0.135978,0.0756 0.272045,0.15039 0.408467,0.22497 0.329443,0.18083 0.652924,0.36566 0.969731,0.56802 0.283168,0.17968 0.571586,0.3298 0.873086,0.47584 0.238139,0.12245 0.466044,0.25851 0.695907,0.39583 0.406242,0.23974 0.819068,0.45714 1.242835,0.6636 0.79522,0.38916 1.56045,0.82841 2.32933,1.26678 0.47352,0.26982 0.94953,0.53493 1.42741,0.79709 0.073,0.04 0.14515,0.0801 0.2199,0.12067 0.64189,0.35169 1.28484,0.70152 1.92771,1.05161 0.5133,0.27987 1.02526,0.56206 1.53589,0.84665 1.42803,0.79549 2.86639,1.57158 4.3067,2.34437 0.51063,0.27471 1.01841,0.55281 1.5196,0.84434 0.50227,0.2918 1.01494,0.55103 1.53803,0.80279 0.29037,0.15092 0.55281,0.32472 0.82387,0.50751 0.15841,0.0863 0.3177,0.17068 0.47806,0.25309 0.42546,0.22728 0.79193,0.489 1.16168,0.79789 0.15075,0.13669 0.15075,0.13669 0.33986,0.1188 0.0294,0.0891 0.0596,0.17816 0.09,0.26991 0.10287,0.1059 0.20628,0.21135 0.31253,0.31387 0.45394,0.44931 0.83821,0.91402 1.12716,1.48579 0.0498,0.096 0.10047,0.19204 0.15217,0.291 0.82005,1.58403 0.95478,3.01927 0.95024,4.77817 1.8e-4,0.18465 4.5e-4,0.36922 8e-4,0.55379 7.2e-4,0.50475 3.6e-4,1.00959 -2.6e-4,1.51435 -3.6e-4,0.54542 2.6e-4,1.09076 8e-4,1.63609 7.1e-4,0.94437 0,1.88865 7.1e-4,2.83302 -3.6e-4,1.42981 0,2.85962 0,4.28943 6.2e-4,0.57453 0,1.14896 0,1.72339 0,0.0641 1.8e-4,0.12771 1.8e-4,0.19338 0,1.51747 0,3.03485 0,4.55222 0,0.0667 0,0.13269 1.8e-4,0.20103 8e-4,1.54826 0,3.09643 0,4.64469 0,0.0667 0,0.13322 0,0.20183 0,0.33585 9e-5,0.6717 9e-5,1.00755 8e-5,0.0667 0,0.13278 0,0.20121 0,0.13393 0,0.26795 0,0.40188 3.5e-4,2.21524 0,4.43049 0.009,6.64573 4.5e-4,0.31307 8.1e-4,0.62605 0,0.93912 0,0.0614 1.8e-4,0.12316 2.7e-4,0.18661 0,0.98975 0,1.97942 2.7e-4,2.96917 -7.1e-4,0.99501 -1.8e-4,1.9901 0,2.9851 0,0.53866 0,1.07732 1.8e-4,1.61598 0,0.49363 -4.5e-4,0.98718 0,1.48081 3.5e-4,0.17807 9e-5,0.35614 -8e-4,0.53421 -0.009,1.34829 0.0756,2.54842 0.94668,3.64923 0.0685,0.0947 0.13731,0.18929 0.20806,0.28682 0.45296,0.47405 1.00408,0.78098 1.5915,1.0629 0.519,0.27472 1.02971,0.5618 1.53527,0.86045 0.63922,0.37457 1.28209,0.72172 1.98244,0.9676 0.16846,0.0605 0.33327,0.13126 0.49764,0.2021 1.83837,0.67695 4.13842,0.38817 5.88246,-0.41052 0.3362,-0.1697 0.66306,-0.35276 0.98984,-0.5399 0.16472,-0.0903 0.32971,-0.1803 0.49487,-0.26991 0.0819,-0.0445 0.16303,-0.0891 0.24704,-0.135 0.16597,-0.0903 0.33211,-0.1803 0.49844,-0.26991 0.24721,-0.13357 0.49327,-0.26893 0.73915,-0.40491 0.0748,-0.04 0.15013,-0.081 0.22746,-0.12236 1.00542,-0.56544 1.90574,-1.33619 2.28181,-2.45445 0.23467,-0.91883 0.22782,-1.81425 0.22426,-2.7571 2.7e-4,-0.18404 7.1e-4,-0.36807 0,-0.5521 0,-0.50324 5.3e-4,-1.00649 -2.7e-4,-1.50973 -6.2e-4,-0.54373 3.6e-4,-1.08737 0,-1.63111 0,-0.94152 0,-1.88313 0,-2.82465 -6.2e-4,-1.36298 5.4e-4,-2.72596 0,-4.08894 7.1e-4,-0.63583 0,-1.27176 0,-1.90769 0,-0.0641 1.8e-4,-0.12725 1.8e-4,-0.19284 0,-1.51355 0,-3.02701 0,-4.54057 0,-0.0659 0,-0.13233 0,-0.20058 3.6e-4,-1.00657 7.1e-4,-2.01315 0,-3.01972 2.7e-4,-1.07278 6.2e-4,-2.14556 0,-3.21834 0,-0.0659 0,-0.13224 0,-0.20032 5.3e-4,-1.51026 0,-3.02061 0,-4.53087 0,-0.0632 9e-5,-0.12708 1.8e-4,-0.19257 6.2e-4,-0.63468 0,-1.26937 0,-1.90405 0,-1.36102 0,-2.72204 0,-4.08315 -4.5e-4,-0.99242 0,-1.98485 0,-2.97727 8e-4,-0.53706 0,-1.07412 1.8e-4,-1.61118 -8.1e-4,-0.49238 -3.6e-4,-0.98485 0,-1.47724 2.6e-4,-0.17736 1.7e-4,-0.35472 -6.3e-4,-0.53207 -0.009,-1.32258 0.0481,-2.65433 0.57497,-3.88818 0.0667,-0.1609 0.0667,-0.1609 0.135,-0.32508 0.11756,-0.24099 0.23885,-0.4284 0.40491,-0.63655 0.089,-0.15752 0.17753,-0.31503 0.26537,-0.47308 0.13152,-0.21811 0.29553,-0.40811 0.45447,-0.60674 0,-0.0596 0,-0.11871 0,-0.17993 0.0891,-0.0294 0.17816,-0.0596 0.26991,-0.09 0.15386,-0.14595 0.30355,-0.29643 0.44994,-0.44994 0.5391,-0.56384 1.19372,-0.96768 1.87796,-1.33424 0.18039,-0.0992 0.35107,-0.20645 0.52336,-0.31912 0.37839,-0.24063 0.77786,-0.43561 1.17948,-0.63352 0.43436,-0.21429 0.85796,-0.44157 1.27808,-0.68247 0.15155,-0.0863 0.30302,-0.17353 0.45457,-0.2603 0.10954,-0.0623 0.219,-0.12547 0.32855,-0.1883 0.40464,-0.23164 0.81328,-0.45519 1.22353,-0.67677 0.25843,-0.14292 0.51205,-0.29269 0.76585,-0.44362 0.48901,-0.28762 0.99002,-0.54293 1.49985,-0.79086 0.30408,-0.15324 0.60051,-0.31574 0.89747,-0.48224 0.25683,-0.14265 0.51526,-0.28183 0.77413,-0.42075 0.14105,-0.0756 0.14105,-0.0756 0.28495,-0.15306 0.19507,-0.10466 0.39022,-0.20922 0.58556,-0.31352 0.0932,-0.0498 0.18634,-0.10029 0.28236,-0.15199 0.0845,-0.0454 0.16882,-0.0904 0.25576,-0.13696 0.21429,-0.114 0.21429,-0.114 0.38578,-0.30061 0.14995,-0.0605 0.2999,-0.12005 0.44984,-0.18003 0.2377,-0.12334 0.47005,-0.25602 0.70303,-0.388 0.67313,-0.37803 1.35052,-0.74743 2.03014,-1.11354 0.64447,-0.34751 1.2852,-0.69751 1.91277,-1.07483 0.14692,-0.0845 0.29705,-0.16436 0.44922,-0.23938 0.43659,-0.22079 0.85778,-0.46729 1.28218,-0.71032 2.6892,-1.53046 2.6892,-1.53046 3.9704,-1.42279 0.65951,0.18341 0.98175,0.61778 1.34972,1.1697 0.10937,0.52157 0.10287,1.06637 0.10118,1.5972 1.8e-4,0.0756 2.7e-4,0.15057 3.6e-4,0.22817 3.6e-4,0.25122 0,0.50244 -3.6e-4,0.75367 1.8e-4,0.18234 2.7e-4,0.36468 4.5e-4,0.54711 2.7e-4,0.39592 2.7e-4,0.79184 0,1.18785 -4.5e-4,0.6442 -1.8e-4,1.28849 1.8e-4,1.93278 3.5e-4,0.8746 5.3e-4,1.7492 5.3e-4,2.6238 0,1.47636 0,2.95262 0,4.42897 3.6e-4,0.31441 6.2e-4,0.62881 0,0.94313 3.6e-4,0.38168 7.1e-4,0.76327 0,1.14495 0,1.43818 0,2.87644 0,4.31471 0,0.0658 1.8e-4,0.13135 1.8e-4,0.19907 0,2.13177 0,4.26354 0,6.39531 -1.8e-4,2.19255 0,4.38519 0,6.57774 3.5e-4,0.30969 8e-4,0.61928 0,0.92888 0,0.0614 1.8e-4,0.12192 2.7e-4,0.18466 0,0.9805 0,1.96091 0,2.9414 0,0.98522 -2.7e-4,1.97034 0,2.95556 0,0.53368 0,1.06735 1.7e-4,1.60112 0,0.48847 -6.2e-4,0.97703 0,1.46549 4.5e-4,0.17683 1.8e-4,0.35356 0,0.5303 -0.0178,1.37588 -0.0178,1.37588 0.69716,2.51211 0.0587,0.04 0.11666,0.0801 0.17682,0.12094 0.0587,0.0418 0.11711,0.0837 0.17745,0.12655 0.30435,0.16935 0.58564,0.20218 0.93039,0.20521 0.0985,0 0.0985,0 0.19899,0 0.51846,-0.0498 0.95896,-0.29251 1.40943,-0.53813 0.0587,-0.032 0.11836,-0.0641 0.17932,-0.0966 0.41443,-0.22497 0.81924,-0.46311 1.2213,-0.70943 0.23458,-0.13892 0.47575,-0.2571 0.72092,-0.37572 0.23991,-0.12343 0.46978,-0.26066 0.7016,-0.39859 0.50315,-0.29705 1.01716,-0.55797 1.54087,-0.81578 0.30657,-0.15288 0.60567,-0.31502 0.9037,-0.48366 0.22986,-0.12984 0.4615,-0.25603 0.6935,-0.38204 0.1649,-0.09 0.32989,-0.17994 0.49488,-0.27 0.0721,-0.0392 0.14354,-0.0783 0.21758,-0.11844 0.32304,-0.17736 0.64073,-0.35917 0.95211,-0.55637 0.91518,-0.57906 0.91518,-0.57906 1.37713,-0.75286 0.32411,-0.13625 0.61306,-0.3169 0.9118,-0.50129 0.39948,-0.24561 0.797,-0.47699 1.22033,-0.68042 0,-0.0596 0,-0.1188 0,-0.18003 0.0596,-0.0169 0.1188,-0.0338 0.17994,-0.0507 1.33174,-0.63815 2.4427,-2.37658 2.91978,-3.72292 0.0418,-0.12539 0.0828,-0.25096 0.12272,-0.37679 0.0187,-0.0578 0.0374,-0.11604 0.0561,-0.17584 0.21829,-0.72661 0.24374,-1.46052 0.24196,-2.21471 1.8e-4,-0.0845 2.7e-4,-0.16891 4.5e-4,-0.25585 4.4e-4,-0.28246 1.8e-4,-0.56482 0,-0.84719 1.8e-4,-0.20477 3.6e-4,-0.40954 6.2e-4,-0.61421 5.4e-4,-0.56225 5.4e-4,-1.12449 4.5e-4,-1.68664 0,-0.54427 3.5e-4,-1.08845 8e-4,-1.63262 0,-1.25041 0,-2.50082 0,-3.75122 0,-0.96573 2.7e-4,-1.93137 5.3e-4,-2.89709 0,-0.2781 1.8e-4,-0.55619 2.7e-4,-0.83429 0,-0.10376 0,-0.10376 0,-0.20957 5.3e-4,-1.94445 0,-3.8888 8e-4,-5.83325 0,-0.073 0,-0.14656 0,-0.22212 0,-0.37144 0,-0.74289 0,-1.11434 0,-0.0739 0,-0.14754 0,-0.22354 0,-0.14924 0,-0.29839 0,-0.44754 0,-2.32096 6.2e-4,-4.64192 0,-6.9628 0,-2.60831 0,-5.21663 0,-7.82494 0,-0.27828 0,-0.55646 0,-0.83464 0,-0.0685 0,-0.13705 0,-0.20762 0,-1.10153 5.3e-4,-2.20305 0,-3.30458 8e-4,-1.10739 0,-2.21479 2.7e-4,-3.3221 -2.7e-4,-0.59971 -2.7e-4,-1.19941 4.4e-4,-1.79912 7.1e-4,-0.54925 6.3e-4,-1.0985 -1.8e-4,-1.64784 -1.7e-4,-0.19836 0,-0.39681 5.4e-4,-0.59526 0.009,-1.975409 -0.19747,-3.625383 -1.28271,-5.327862 -0.0472,-0.08454 -0.0941,-0.168371 -0.14274,-0.255136 -0.0418,-0.06407 -0.0836,-0.128503 -0.12717,-0.194712 -0.0596,0 -0.1188,0 -0.18003,0 -0.0196,-0.04894 -0.0383,-0.097 -0.0578,-0.146923 -0.16579,-0.290288 -0.39112,-0.509294 -0.62774,-0.741648 -0.049,-0.04805 -0.098,-0.09629 -0.14844,-0.145945 -0.64135,-0.623023 -1.29561,-1.037096 -2.09902,-1.42554 -0.38043,-0.185812 -0.74752,-0.390402 -1.11559,-0.599262 -0.13677,-0.07475 -0.27364,-0.150039 -0.41051,-0.224969 -0.26047,-0.144253 -0.51392,-0.29527 -0.76487,-0.455542 -0.2829,-0.179583 -0.57106,-0.329622 -0.87238,-0.475566 -0.24205,-0.124409 -0.47405,-0.262433 -0.70792,-0.401704 -0.39983,-0.236092 -0.80412,-0.452962 -1.22033,-0.657996 -0.48295,-0.23805 -0.95576,-0.485889 -1.42278,-0.753572 -0.15155,-0.08632 -0.30301,-0.173621 -0.45456,-0.260387 -0.10955,-0.06229 -0.21901,-0.125477 -0.32855,-0.188304 -0.40465,-0.231554 -0.81329,-0.455187 -1.22354,-0.676773 -0.25843,-0.142919 -0.51205,-0.292691 -0.76585,-0.443619 -0.49737,-0.292512 -1.008,-0.550317 -1.52512,-0.805275 -0.37438,-0.186436 -0.73844,-0.38702 -1.10117,-0.594992 -0.20628,-0.118179 -0.41247,-0.23627 -0.61866,-0.35436 -0.081,-0.04628 -0.081,-0.04628 -0.16428,-0.09406 -0.40188,-0.229863 -0.80643,-0.454119 -1.21365,-0.674371 -0.24063,-0.130282 -0.481,-0.261098 -0.72109,-0.392092 -0.0863,-0.04716 -0.173,-0.09442 -0.26217,-0.143097 -0.23565,-0.128681 -0.47129,-0.25745 -0.70694,-0.386308 -0.91367,-0.499416 -1.82929,-0.995182 -2.74687,-1.487478 -0.61537,-0.330155 -1.22932,-0.661556 -1.8333,-1.012268 -0.44184,-0.256382 -0.88999,-0.489626 -1.35114,-0.709255 -0.23663,-0.123074 -0.46124,-0.253712 -0.68888,-0.392271 -0.5424,-0.328731 -1.10055,-0.625514 -1.66047,-0.92301 -0.63291,-0.336295 -1.2602,-0.675528 -1.87041,-1.051869 -0.28174,-0.166857 -0.57408,-0.308886 -0.86801,-0.452873 -0.57657,-0.286995 -1.13721,-0.601487 -1.68744,-0.936003 -0.31129,-0.188927 -0.62454,-0.359967 -0.95229,-0.51837 -0.22266,-0.111238 -0.44068,-0.229418 -0.65889,-0.34911 -0.13108,-0.07208 -0.13108,-0.07208 -0.26483,-0.144966 -0.0881,-0.04805 -0.17603,-0.09638 -0.26662,-0.146033 -0.1576,-0.08543 -0.3152,-0.171574 -0.47281,-0.257272 -1.10909,-0.603801 -2.21462,-1.213654 -3.31739,-1.828846 -0.45234,-0.251843 -0.90619,-0.500661 -1.36084,-0.748233 -0.23182,-0.126277 -0.46355,-0.252911 -0.69528,-0.379634 -0.71309,-0.389778 -1.42644,-0.778934 -2.14263,-1.163018 -0.10243,-0.05517 -0.20495,-0.109992 -0.31049,-0.166679 -0.19729,-0.105721 -0.39467,-0.211264 -0.59214,-0.316629 -0.55958,-0.299987 -1.11061,-0.610831 -1.6563,-0.93538 -0.25878,-0.148169 -0.52264,-0.28032 -0.7897,-0.412916 -0.14906,-0.08276 -0.29749,-0.165878 -0.44531,-0.250597 -0.0828,-0.04717 -0.16579,-0.09469 -0.25113,-0.143364 -0.0872,-0.04983 -0.17504,-0.100026 -0.26519,-0.151551 -0.7348,-0.418078 -1.47431,-0.823341 -2.22503,-1.211874 -0.37136,-0.192932 -0.73533,-0.39325 -1.09476,-0.607628 -2.81932,-1.676761 -6.13235,-1.337795 -8.85421,0.316896 z M 75.690626,113.00692 c -0.116934,0.0587 -0.116934,0.0587 -0.236181,0.11809 -0.488291,0.34689 -0.691012,0.66485 -0.809369,1.24899 -0.07208,0.53278 -0.05873,1.06975 -0.05695,1.60637 -1.78e-4,0.13722 -4.45e-4,0.27453 -8.01e-4,0.41175 -7.12e-4,0.37563 -4.45e-4,0.75135 1.78e-4,1.12698 3.56e-4,0.40571 -2.67e-4,0.81151 -7.12e-4,1.21731 -8.01e-4,0.7945 -6.23e-4,1.58901 -1.78e-4,2.38352 3.56e-4,0.64634 4.45e-4,1.29259 2.67e-4,1.93893 0,0.0921 0,0.18412 0,0.27898 0,0.18706 -1.78e-4,0.37412 -1.78e-4,0.56118 -5.34e-4,1.75409 0,3.5081 0,5.2621 8.01e-4,1.50261 6.23e-4,3.00521 -1.78e-4,4.50782 0,1.74662 0,3.49323 -8.01e-4,5.23976 0,0.18671 1.78e-4,0.37332 1.78e-4,0.55993 0,0.0917 0,0.18359 1.78e-4,0.27819 1.78e-4,0.64456 -1.78e-4,1.28903 -5.34e-4,1.93359 -5.34e-4,0.78694 -3.56e-4,1.57388 5.34e-4,2.36083 5.34e-4,0.40099 7.12e-4,0.80189 0,1.20279 -0.09397,2.63706 -0.09397,2.63706 0.445665,5.18344 0.02314,0.0623 0.04628,0.12414 0.0703,0.18812 0.224345,0.57916 0.522731,1.10011 0.857869,1.62275 0.04717,0.0837 0.09398,0.16792 0.142385,0.25442 0.04183,0.065 0.08454,0.12904 0.127613,0.19543 0.05962,0 0.118713,0 0.179939,0 0.02136,0.0507 0.04272,0.10118 0.06496,0.15324 0.618307,1.11185 1.929761,1.81265 3.024701,2.3691 0.493186,0.25087 0.493186,0.25087 0.68941,0.447 0.148348,0.0641 0.296873,0.1269 0.446021,0.1884 0.268129,0.11898 0.519705,0.26323 0.774663,0.40775 0.227193,0.12833 0.456255,0.25274 0.685762,0.37679 0.328642,0.17851 0.653992,0.36175 0.977561,0.54934 0.5828,0.33754 1.173875,0.64678 1.778121,0.9441 0.372604,0.1859 0.734618,0.38746 1.096631,0.59294 0.136779,0.0747 0.273647,0.15004 0.410517,0.22497 0.253445,0.14025 0.499148,0.287 0.742359,0.44433 0.29625,0.18857 0.601399,0.34582 0.916692,0.50048 0.376875,0.18493 0.732749,0.38213 1.08533,0.60914 0.196046,0.1245 0.394762,0.2425 0.596148,0.35819 0.06318,0.0365 0.1269,0.073 0.192219,0.11106 0.536435,0.25033 1.122439,0.22746 1.691711,0.11952 0.622667,-0.24224 0.915536,-0.59855 1.198615,-1.18643 0.191774,-0.56882 0.156801,-1.16586 0.152618,-1.75943 6.23e-4,-0.14959 0,-0.29919 0,-0.44887 0,-0.40953 0,-0.81898 0,-1.22842 -8e-4,-0.44238 0,-0.88466 0,-1.32694 0,-0.86606 0,-1.73203 0,-2.59799 -7.11e-4,-0.70436 -6.22e-4,-1.40864 0,-2.11291 1.78e-4,-0.10029 1.78e-4,-0.20067 3.56e-4,-0.30399 1.78e-4,-0.20388 3.56e-4,-0.40767 5.34e-4,-0.61154 0,-1.91108 7.12e-4,-3.82206 0,-5.73313 0,-1.6377 -6.23e-4,-3.2753 0,-4.91299 0,-1.90334 0.0089,-3.80667 0,-5.71 -1.78e-4,-0.20325 -2.67e-4,-0.40651 -3.56e-4,-0.60985 0,-0.0999 -1.78e-4,-0.19996 -1.78e-4,-0.30301 -2.67e-4,-0.70258 7.12e-4,-1.40525 0,-2.10792 0,-0.85743 0,-1.71494 -8.01e-4,-2.57245 0,-0.43704 0,-0.87398 3.56e-4,-1.31101 0,-0.40108 0,-0.80208 0,-1.20307 -5.33e-4,-0.14416 -1.78e-4,-0.28824 0,-0.4324 0.0089,-0.98753 -0.06941,-2.26579 -0.757576,-3.04437 -0.04005,-0.0338 -0.08098,-0.0676 -0.122185,-0.10278 -0.02581,-0.0552 -0.05161,-0.11133 -0.07831,-0.16864 -0.261277,-0.49354 -0.703026,-0.74859 -1.180994,-1.00106 -0.127613,-0.0712 -0.255047,-0.14229 -0.382393,-0.21375 -0.300788,-0.16686 -0.602911,-0.33114 -0.905479,-0.49488 -0.349466,-0.18973 -0.692881,-0.38729 -1.034783,-0.59045 -0.496923,-0.29242 -1.007106,-0.55014 -1.523964,-0.80457 -0.306216,-0.1527 -0.605138,-0.31449 -0.902634,-0.4833 -0.235469,-0.1326 -0.47343,-0.26012 -0.711391,-0.388 -0.352936,-0.19169 -0.683803,-0.40153 -1.017963,-0.62427 -0.107946,-0.0561 -0.216781,-0.11008 -0.326151,-0.16312 -0.317251,-0.15378 -0.619018,-0.32651 -0.922298,-0.50609 -0.403483,-0.23823 -0.811327,-0.45323 -1.232342,-0.65836 -0.307551,-0.15778 -0.598817,-0.33941 -0.893465,-0.51988 -0.292334,-0.17166 -0.594457,-0.31787 -0.899072,-0.4664 -0.314137,-0.16098 -0.611988,-0.34555 -0.913133,-0.52931 -0.239918,-0.14257 -0.483397,-0.26902 -0.734973,-0.38943 -0.152975,-0.0747 -0.303725,-0.1544 -0.453407,-0.23555 -0.816044,-0.43428 -1.404538,-0.68345 -2.263209,-0.22106 z"
           fill="#252f36"
           id="path1"
           style="fill:#f2f2f2;stroke-width:0.0899802" /></g></svg></g></svg>
