<?xml version="1.0" encoding="UTF-8" standalone="no"?>
<svg
   width="47.850468"
   height="47.850468"
   viewBox="0 0 256 255.81596"
   fill="none"
   version="1.1"
   id="svg28"
   sodipodi:docname="es.svg"
   xml:space="preserve"
   inkscape:export-filename="mikrotik.svg"
   inkscape:export-xdpi="96"
   inkscape:export-ydpi="96"
   inkscape:version="1.4.2 (f4327f4, 2025-05-13)"
   xmlns:inkscape="http://www.inkscape.org/namespaces/inkscape"
   xmlns:sodipodi="http://sodipodi.sourceforge.net/DTD/sodipodi-0.dtd"
   xmlns="http://www.w3.org/2000/svg"
   xmlns:svg="http://www.w3.org/2000/svg"><defs
     id="defs28" /><sodipodi:namedview
     id="namedview28"
     pagecolor="#ffffff"
     bordercolor="#000000"
     borderopacity="0.25"
     inkscape:showpageshadow="2"
     inkscape:pageopacity="0.0"
     inkscape:pagecheckerboard="0"
     inkscape:deskcolor="#d1d1d1"
     inkscape:zoom="10.973753"
     inkscape:cx="25.469864"
     inkscape:cy="20.002273"
     inkscape:window-width="1920"
     inkscape:window-height="1009"
     inkscape:window-x="-8"
     inkscape:window-y="-8"
     inkscape:window-maximized="1"
     inkscape:current-layer="g29"><inkscape:page
       x="0"
       y="0"
       width="256"
       height="255.81596"
       id="page2"
       margin="0"
       bleed="0" /></sodipodi:namedview><g
     id="g3"
     transform="translate(-0.6894576,-0.49590021)"><svg
       width="256"
       height="256"
       fill="none"
       viewBox="0 0 256 256"
       id="aws"
       version="1.1"><style
         id="style1">
#aws {
    rect {fill: #242938}
    path.letters {fill: #fff}

    @media (prefers-color-scheme: light) {
        rect {fill: #F4F2ED}
        path.letters {fill: #252F3E}
    }
}
</style><g
         transform="matrix(0.71333333,0,0,-0.71333333,0,14266.823)"
         fill="#000000"
         stroke="none"
         id="g1" /><g
         id="g29"><rect
           width="256"
           height="256"
           fill="#242938"
           rx="60"
           id="rect1"
           x="0.6894576"
           y="0.40388021" /><g
           id="g2"
           transform="matrix(0.19002245,0,0,0.19002245,36.426991,32.862163)"><path
             d="M 0,0 C 1.2139444,0.00182281 2.4278888,0.00364563 3.6786194,0.00552368 21.305673,0.05009253 38.510974,0.48371735 55.9375,3.3125 57.595315,3.5619336 57.595315,3.5619336 59.286621,3.8164063 93.103015,8.9480215 126.04899,18.566059 156.9375,33.3125 c 1.00136,0.476873 1.00136,0.476873 2.02295,0.963379 4.70489,2.259033 9.3533,4.616228 13.97705,7.036621 1.05888,0.552283 1.05888,0.552283 2.13916,1.115723 17.06874,8.980947 32.80123,19.860876 47.86084,31.884277 0.91781,0.724453 1.83562,1.448906 2.78125,2.195312 16.83529,13.497259 32.94453,28.788898 46.21875,45.804688 0.87825,1.0574 1.75997,2.11193 2.64453,3.16406 36.43991,43.71423 58.92018,97.21573 70.60547,152.52344 0.23429,1.10207 0.46857,2.20414 0.70996,3.3396 0.60364,2.97942 1.16154,5.96237 1.68234,8.95734 0.24146,1.36058 0.49547,2.71899 0.76105,4.07507 3.69243,19.17161 3.08954,38.75911 3.04269,58.19684 -0.009,3.98882 -0.002,7.97705 0.0205,11.96582 0.12474,21.95724 0.0139,43.18692 -4.46655,64.77783 -0.25221,1.34422 -0.50122,2.68905 -0.74585,4.03467 -0.58776,3.11009 -1.23847,6.19205 -1.94165,9.27783 -0.24855,1.0957 -0.49709,2.19141 -0.75317,3.32031 -6.52481,27.80768 -16.10596,55.16029 -29.53052,80.41553 -1.13098,2.14549 -2.22714,4.30695 -3.32178,6.47119 -11.66067,22.87494 -26.12347,43.88968 -42.70703,63.48047 -0.79406,0.9784 -1.58813,1.9568 -2.40625,2.96484 -6.60761,8.04596 -13.8181,15.47379 -21.15625,22.84766 -0.48269,0.48787 -0.96539,0.97574 -1.46271,1.47839 -6.64479,6.70091 -13.59545,12.82624 -20.97479,18.70911 -1.03935,0.87503 -2.07447,1.75515 -3.10156,2.64453 -87.26337,74.97085 -190.214,79.35547 -300.89844,79.35547 0,-67.98 0,-135.96 0,-206 30.69,-0.33 61.38,-0.66 93,-1 14.914683,-2.17295 14.914683,-2.17295 29.4375,-5.625 0.859241,-0.25161 1.718481,-0.50322 2.60376,-0.76245 19.375912,-5.93097 36.581652,-15.45037 51.95874,-28.61255 0.819844,-0.69738 1.639687,-1.39477 2.484375,-2.11328 C 128.2287,453.26716 145.43387,414.41917 148.34374,373.92578 151.03858,330.3789 140.83314,287.62919 112.26171,253.92187 86.315553,224.7924 49.756459,208.6818 10.894531,206.40234 9.9187109,206.3727 8.9428906,206.34305 7.9375,206.3125 c -1.2748828,-0.04 -2.5497656,-0.0799 -3.8632813,-0.12109 -41.3879767,-0.85272 -82.3384517,13.46169 -112.7343787,41.79687 -1.68609,1.63126 -3.35672,3.2786 -5.01562,4.9375 -1.31662,1.31662 -2.64506,2.62281 -4.01953,3.87891 -26.99213,25.01364 -38.64239,64.08537 -41.36719,99.50781 -0.33,27.39 -0.66,54.78 -1,83 -66.99,0 -133.98,0 -203,0 0,-110.92222 0,-110.92222 4.625,-137.6875 0.19025,-1.12383 0.19025,-1.12383 0.38434,-2.27036 10.92116,-63.97792 39.43951,-127.61865 83.72504,-175.56558 1.82859,-1.99884 3.59601,-4.02661 5.35937,-6.08203 4.21471,-4.82743 8.69883,-9.37319 13.22949,-13.90307 1.41596,-1.41814 2.82374,-2.84443 4.23145,-4.270757 6.1697,-6.18259 12.60479,-11.796229 19.44531,-17.220703 1.23153,-1.012754 2.46103,-2.027999 3.6875,-3.046875 C -179.97881,39.566243 -121.15683,14.697817 -59.75,4.0625 -58.446637,3.8354236 -58.446637,3.8354236 -57.116943,3.6037598 -38.136112,0.53090433 -19.195314,-0.0598598 0,0 Z"
             fill="#49cbd6"
             transform="translate(611.0625,-0.3125)"
             id="path1" /><path
             d="m 0,0 c 151.14,0 302.28,0 458,0 0,153.12 0,306.24 0,464 -185.49365,0 -185.49365,0 -201.64453,-15.40625 -13.6105,-14.98735 -14.96712,-32.4076 -14.80957,-51.67773 0.001,-1.96293 4.9e-4,-3.92586 -0.002,-5.88878 -0.001,-5.27796 0.0222,-10.55556 0.0503,-15.83343 0.0252,-5.5346 0.0274,-11.0692 0.0321,-16.60384 0.0124,-10.45789 0.0451,-20.9156 0.0854,-31.37341 0.0449,-11.91548 0.0667,-23.83096 0.0868,-35.7465 C 241.8404,266.97994 241.91067,242.48998 242,218 c -1.51903,0.006 -1.51903,0.006 -3.06875,0.0112 -24.68164,0.0889 -49.36325,0.1546 -74.04501,0.19608 -11.9361,0.0206 -23.87209,0.0487 -35.80812,0.0945 -10.40777,0.04 -20.81547,0.0657 -31.223323,0.0746 -5.506959,0.005 -11.013699,0.0173 -16.520588,0.0466 -5.192352,0.0273 -10.384396,0.0355 -15.576814,0.0295 -1.896954,0.001 -3.79392,0.009 -5.690811,0.0244 -16.806545,0.13004 -31.749227,-1.755 -44.57049,-13.8362 C -30.785289,155.53814 0,24.03584 0,0 Z"
             fill="#4acad6"
             transform="translate(0,512)"
             id="path2" /></g></g></svg></g></svg>
